<?xml version="1.0" standalone="no"?>
<!DOCTYPE svg PUBLIC "-//W3C//DTD SVG 20010904//EN"
 "http://www.w3.org/TR/2001/REC-SVG-20010904/DTD/svg10.dtd">
<svg version="1.0" xmlns="http://www.w3.org/2000/svg"
 width="348.000000pt" height="522.000000pt" viewBox="0 0 348.000000 522.000000"
 preserveAspectRatio="xMidYMid meet">

<g transform="translate(0.000000,522.000000) scale(0.100000,-0.100000)"
fill="#000000" stroke="none">
<path d="M1944 4749 c-19 -10 -54 -57 -54 -73 0 -4 11 4 25 18 14 14 25 29 25
34 0 13 27 19 83 18 26 -1 47 2 47 7 0 11 -102 7 -126 -4z"/>
<path d="M2095 4740 c17 -7 17 -9 3 -9 -10 -1 -18 -8 -18 -16 0 -12 9 -15 38
-12 47 4 95 -11 88 -28 -3 -8 8 -18 25 -25 16 -7 26 -17 23 -22 -4 -6 2 -6 14
1 15 8 23 6 37 -9 9 -10 14 -23 11 -29 -3 -5 0 -12 6 -14 10 -4 10 -6 0 -6 -7
-1 -44 15 -82 34 -39 19 -74 34 -78 35 -4 0 -14 2 -22 4 -8 2 -43 10 -77 17
-42 9 -58 16 -50 22 8 6 5 7 -8 2 -11 -3 -42 -11 -70 -17 -52 -12 -78 -25 -70
-37 2 -4 -10 -5 -27 -3 -21 3 -33 0 -40 -12 -5 -9 -16 -16 -24 -16 -9 0 -14
-6 -11 -12 2 -7 15 -12 27 -10 36 4 135 -27 123 -39 -7 -7 -22 -6 -44 4 -19 7
-40 12 -48 9 -8 -3 -11 0 -7 7 4 6 3 11 -2 11 -5 0 -12 -9 -15 -20 -4 -17 -2
-20 14 -15 10 4 19 2 19 -4 0 -20 -20 -22 -46 -4 -15 9 -22 19 -15 21 6 2 9 8
6 12 -3 5 -12 7 -20 3 -11 -4 -13 -1 -9 11 3 9 1 16 -6 16 -6 0 -8 -5 -4 -12
5 -9 2 -8 -10 1 -15 13 -18 12 -23 -8 -4 -17 -8 -19 -14 -9 -7 10 -9 8 -9 -6
0 -13 5 -16 18 -11 29 12 45 11 50 -4 3 -8 0 -11 -7 -7 -6 4 -19 2 -28 -3 -10
-6 -12 -11 -5 -11 6 0 12 -4 12 -9 0 -13 -38 -3 -83 21 -21 11 -53 20 -72 21
-19 0 -31 5 -29 9 3 4 -3 11 -13 15 -10 3 -25 12 -34 20 -14 12 -17 12 -22 -1
-6 -14 50 -49 83 -52 8 -1 25 -2 38 -3 12 0 22 -5 22 -11 0 -6 -10 -6 -27 1
-15 6 -30 6 -35 1 -10 -10 44 -26 79 -23 11 1 24 -2 27 -7 3 -5 -6 -7 -19 -4
-14 2 -25 0 -25 -4 0 -5 19 -10 42 -12 22 -1 48 -7 57 -12 14 -7 12 -10 -9
-18 -14 -5 -29 -10 -34 -10 -5 0 -13 -6 -17 -14 -7 -11 -9 -11 -9 1 0 9 -4 10
-12 4 -19 -15 -50 -24 -43 -13 3 5 -6 17 -20 26 -33 22 -32 34 6 34 17 0 28 4
24 10 -3 5 -13 7 -23 4 -15 -5 -15 -4 -2 6 12 9 7 11 -22 8 -31 -3 -38 -1 -38
13 0 10 -5 21 -12 25 -8 5 -9 2 -5 -9 3 -10 2 -17 -3 -17 -6 0 -10 5 -10 11 0
5 -4 8 -9 4 -6 -3 -19 4 -30 16 -11 12 -24 19 -29 16 -5 -4 -30 0 -55 8 -27 8
-47 10 -47 5 0 -6 10 -10 23 -10 12 0 28 -4 35 -9 11 -7 10 -10 -3 -15 -27
-10 -70 -7 -83 6 -6 6 -22 13 -34 15 -12 2 -25 7 -28 11 -5 9 -38 24 -55 27
-5 0 -9 6 -8 13 4 16 -31 15 -58 0 -17 -10 -23 -10 -26 0 -6 17 -28 15 -43 -3
-16 -20 -30 -19 -30 1 0 10 -5 14 -15 10 -8 -3 -28 0 -43 6 -15 6 -43 12 -62
14 -19 1 -55 4 -80 7 -55 6 -94 -9 -138 -54 -22 -23 -35 -30 -40 -22 -5 8 -13
9 -22 3 -13 -8 -12 -10 2 -10 9 0 19 -4 22 -9 3 -4 -6 -6 -19 -3 -14 2 -25 11
-25 21 0 10 -3 12 -8 5 -4 -6 -28 -14 -53 -18 -26 -4 -55 -13 -65 -21 -24 -18
-31 -18 -31 0 0 8 9 15 21 15 12 0 28 5 36 10 13 8 13 10 -2 10 -27 0 -70 -19
-64 -29 3 -4 -3 -16 -14 -26 -21 -19 -28 -41 -10 -30 6 3 10 2 10 -4 0 -5 -6
-12 -12 -14 -10 -4 -10 -6 0 -6 8 -1 16 7 18 17 9 32 77 62 142 62 32 0 61 -2
64 -5 4 -5 -10 -73 -28 -128 -4 -13 -2 -17 5 -13 14 9 14 3 -1 -28 -9 -20 -14
-23 -25 -15 -9 8 -10 15 -3 24 7 8 4 17 -9 29 -12 11 -21 14 -26 7 -3 -6 -1
-11 4 -11 17 0 13 -28 -6 -39 -15 -8 -15 -11 -3 -28 13 -16 13 -17 0 -7 -17
13 -50 15 -50 3 0 -4 8 -14 18 -21 10 -7 22 -19 26 -25 10 -17 -24 -4 -44 16
-8 9 -23 22 -32 29 -15 12 -16 11 -5 -12 7 -14 22 -30 34 -35 13 -6 23 -18 23
-26 0 -9 3 -14 8 -12 4 3 13 -2 21 -10 11 -13 11 -14 -5 -13 -37 4 -37 0 -2
-34 31 -30 33 -35 17 -39 -13 -4 -19 0 -19 11 0 11 -3 13 -8 6 -4 -6 -15 -10
-24 -8 -10 1 -18 -3 -18 -9 0 -7 -4 -6 -9 2 -6 9 -8 -1 -6 -30 4 -57 4 -57 16
-36 12 21 31 13 22 -10 -4 -11 -3 -14 5 -9 7 4 12 3 12 -3 0 -15 -23 -26 -28
-13 -2 7 -13 12 -25 11 -22 0 -22 0 0 -9 13 -5 23 -14 23 -20 0 -6 7 -18 15
-27 9 -8 13 -18 10 -21 -3 -3 -12 4 -21 16 -16 23 -41 31 -28 10 5 -9 3 -9 -9
1 -9 7 -14 18 -10 25 4 6 -1 5 -10 -3 -15 -12 -17 -11 -17 3 0 9 -4 16 -10 16
-13 0 -13 -6 5 -39 8 -16 12 -31 9 -33 -3 -3 14 -13 37 -22 23 -9 39 -19 37
-22 -3 -2 -18 0 -33 6 -20 7 -31 8 -39 0 -10 -10 3 -14 32 -11 16 2 16 -16 -1
-22 -6 -2 -2 -3 9 -1 24 4 37 -16 28 -43 -5 -15 -4 -16 5 -3 8 12 11 6 11 -25
0 -22 5 -47 11 -55 8 -11 9 -3 5 30 -4 31 -3 40 4 29 5 -9 10 -33 11 -55 1
-21 8 -49 15 -61 9 -14 10 -24 4 -28 -6 -4 -8 -10 -5 -14 2 -5 -11 -24 -30
-44 -29 -29 -31 -35 -15 -34 10 1 18 3 16 5 -2 2 7 15 20 29 14 15 22 33 20
40 -3 7 -1 13 5 13 5 0 12 -8 16 -17 3 -10 16 -31 27 -48 12 -16 21 -40 20
-52 -1 -12 2 -20 7 -17 4 2 6 11 3 18 -12 31 15 23 51 -14 22 -22 45 -40 51
-40 7 0 19 -9 26 -19 16 -22 98 -54 120 -46 7 2 20 -1 29 -8 20 -16 32 -47 17
-47 -6 0 -9 -3 -6 -6 3 -3 -5 -32 -18 -64 -13 -33 -24 -65 -23 -72 0 -13 4 -6
41 80 10 23 23 40 27 37 5 -2 8 3 7 13 -2 31 29 19 32 -13 6 -58 4 -108 -6
-114 -5 -3 -12 -23 -16 -44 -8 -45 -26 -87 -37 -87 -4 0 -5 -9 -2 -20 3 -11 0
-20 -6 -20 -6 0 -11 -14 -11 -31 0 -17 -4 -38 -9 -48 -6 -10 -11 -38 -12 -64
-2 -42 -4 -45 -22 -36 -16 9 -16 5 6 -33 14 -23 34 -71 45 -104 11 -34 31 -79
44 -100 14 -22 27 -46 31 -54 3 -8 5 -3 4 12 -1 15 -4 25 -8 22 -4 -2 -9 3
-13 11 -5 15 0 17 81 19 18 1 33 -2 33 -7 0 -4 3 -6 8 -6 23 4 52 -2 48 -10
-6 -10 49 -27 72 -22 18 3 15 -6 -10 -29 -12 -11 -18 -23 -15 -27 4 -3 7 0 7
7 0 9 7 7 21 -6 22 -19 22 -19 10 4 -9 17 -9 22 2 22 7 0 19 -6 26 -12 11 -10
12 -10 7 -1 -5 9 -2 11 9 7 9 -4 14 -13 11 -21 -3 -8 -6 -21 -6 -29 0 -9 -4
-13 -9 -10 -5 3 -8 -2 -7 -12 1 -18 37 -52 54 -52 5 0 12 -9 15 -19 5 -21 -16
-31 -70 -31 -17 0 -35 -4 -38 -10 -3 -5 -32 -17 -63 -26 -31 -9 -68 -25 -81
-35 -13 -11 -29 -19 -36 -19 -14 0 -65 -39 -52 -40 4 0 18 6 30 14 12 8 38 17
57 21 19 4 42 12 50 19 8 6 5 -1 -6 -16 -12 -15 -27 -54 -35 -87 l-13 -60 -33
5 c-21 3 -33 1 -33 -6 0 -6 -4 -8 -10 -5 -5 3 -10 -3 -10 -14 0 -14 -5 -19
-15 -15 -8 4 -16 2 -16 -2 -7 -39 -6 -75 2 -80 16 -10 -20 -63 -55 -79 -36
-17 -129 -29 -104 -14 8 6 1 9 -22 9 -19 0 -30 -4 -24 -8 6 -4 13 -15 17 -25
4 -10 11 -15 17 -12 5 3 10 2 10 -4 0 -5 -8 -11 -17 -13 -14 -2 -12 -8 10 -33
23 -26 28 -28 38 -15 9 13 10 13 6 0 -2 -8 6 -25 19 -37 19 -17 20 -22 8 -27
-9 -3 -12 -2 -9 5 4 6 0 9 -11 7 -10 -2 -19 2 -19 9 0 28 -14 20 -37 -24 -13
-27 -24 -52 -23 -58 9 -76 18 -107 26 -94 10 15 11 11 11 -43 1 -19 5 -25 15
-21 10 4 13 0 11 -12 -2 -14 4 -19 29 -21 18 -1 35 2 38 7 4 5 11 9 18 9 6 0
-4 -14 -23 -30 -23 -20 -27 -27 -12 -20 18 9 22 8 22 -4 0 -8 -8 -22 -18 -32
-16 -16 -17 -16 -20 -1 -2 9 -8 17 -14 17 -6 0 -8 -9 -5 -20 3 -12 1 -18 -5
-14 -7 5 -9 -2 -6 -20 3 -14 1 -26 -3 -26 -5 0 -9 -5 -9 -11 0 -6 7 -8 16 -5
14 5 15 4 4 -9 -9 -11 -9 -15 -1 -15 7 0 10 -4 6 -10 -3 -5 -12 -7 -19 -4 -7
3 -19 -3 -27 -13 -13 -17 -13 -17 6 -3 18 14 19 13 8 -1 -7 -9 -9 -19 -5 -24
4 -4 -3 -3 -14 3 -12 6 -25 8 -29 4 -5 -4 -5 1 -1 12 4 12 0 24 -11 33 -10 8
-13 12 -6 9 13 -7 13 -6 14 114 0 86 -6 144 -16 161 -4 5 -1 9 4 9 14 0 14 12
0 47 -10 26 -12 27 -19 8 -8 -18 -9 -18 -9 -2 -1 14 -6 17 -21 12 -15 -5 -21
0 -26 21 -8 30 -61 81 -79 76 -5 -2 -18 -6 -28 -8 -64 -12 -126 -53 -149 -99
-12 -22 -16 -50 -14 -83 2 -35 -1 -49 -9 -45 -7 2 -27 -19 -45 -47 -18 -28
-40 -56 -49 -63 -22 -16 -27 -105 -7 -113 11 -4 13 -12 6 -28 -12 -32 -1 -106
16 -106 8 0 14 -4 14 -10 0 -5 -6 -10 -14 -10 -8 0 -17 -3 -19 -7 -3 -5 17 -8
43 -8 46 1 49 -1 54 -28 3 -16 6 -45 6 -64 0 -46 16 -34 24 18 6 36 8 40 19
25 7 -9 19 -18 27 -20 32 -6 71 -30 66 -41 -2 -7 9 -20 25 -29 28 -17 31 -17
62 2 38 24 102 42 152 44 19 1 35 6 35 11 0 6 3 7 7 4 3 -4 11 -3 17 2 26 21
72 22 97 2 13 -10 41 -26 62 -34 46 -20 52 -35 33 -82 -18 -42 -20 -59 -7 -51
5 3 15 -2 22 -12 13 -15 12 -16 -4 -3 -9 7 -17 10 -17 7 0 -4 -9 -2 -19 4 -14
7 -22 7 -27 -2 -4 -6 -3 -13 4 -16 6 -2 8 -16 5 -36 -5 -30 2 -50 45 -140 3
-5 0 -6 -6 -2 -7 4 -8 -3 -2 -25 5 -18 7 -36 3 -42 -3 -6 -1 -7 5 -3 7 4 9 19
5 38 -4 22 -3 29 5 24 17 -10 13 -136 -4 -161 -8 -11 -14 -26 -14 -35 1 -8 10
2 21 22 11 21 24 38 28 38 5 0 23 12 40 26 36 30 52 27 127 -22 49 -33 123
-49 96 -22 -7 7 -12 19 -12 29 0 24 76 22 116 -2 60 -36 256 -89 330 -89 20 0
44 -5 55 -10 11 -7 19 -7 19 -1 0 17 55 -5 65 -26 6 -12 17 -28 24 -36 7 -9
15 -27 19 -41 5 -18 11 -23 20 -17 11 6 8 14 -12 36 -27 29 -35 52 -14 39 8
-5 9 -2 5 9 -3 10 -2 17 3 17 6 0 10 -4 10 -8 0 -4 11 -8 25 -8 29 0 30 5 11
31 -8 11 -12 25 -9 32 3 7 -2 13 -10 13 -8 0 -32 17 -52 37 -34 34 -35 37 -18
47 10 6 18 19 17 29 -1 12 0 13 3 2 2 -8 10 -15 16 -15 7 -1 1 -7 -13 -15 -14
-8 -19 -14 -10 -14 17 0 60 33 60 46 0 4 12 14 27 20 22 11 29 10 44 -3 17
-15 18 -14 13 27 -4 37 -3 41 10 30 8 -7 12 -19 9 -27 -3 -9 2 -14 16 -14 13
0 26 -11 36 -30 9 -16 19 -30 23 -30 4 0 23 -14 42 -30 l35 -30 -39 25 c-37
24 -56 31 -56 20 0 -2 32 -24 70 -49 70 -46 92 -77 47 -69 -13 3 -29 -2 -36
-10 -10 -13 -9 -17 7 -26 11 -6 22 -8 25 -4 4 3 18 7 32 8 31 4 34 -20 4 -35
-13 -7 -19 -19 -17 -33 2 -17 9 -22 32 -20 35 3 60 -25 75 -84 6 -23 16 -45
23 -49 8 -5 9 -2 4 12 -5 10 -12 33 -18 49 -5 17 -15 40 -21 52 -5 13 -7 26
-4 30 4 3 7 1 7 -5 0 -7 6 -12 13 -12 18 0 120 50 128 62 4 6 12 8 18 4 7 -5
9 -1 5 8 -4 10 -1 16 9 16 9 0 18 -9 22 -19 7 -24 52 -54 71 -47 7 3 18 -3 24
-12 10 -15 11 -14 7 4 -3 12 -1 28 4 35 11 19 51 -28 47 -56 -1 -11 1 -26 5
-32 4 -7 3 -22 -3 -33 -16 -30 5 -26 51 11 36 28 41 29 79 19 30 -8 45 -8 54
0 8 6 22 7 32 4 16 -6 17 -5 6 7 -7 8 -18 14 -25 15 -24 2 -57 17 -57 25 0 4
15 5 34 2 29 -5 35 -2 41 18 11 32 9 74 -4 98 -9 17 -8 20 12 24 20 4 20 4 -4
6 -14 0 -34 10 -44 21 -10 11 -32 22 -49 26 -19 3 -36 14 -41 27 -6 12 -17 22
-25 22 -39 1 0 167 41 180 11 4 19 11 19 16 0 5 6 9 13 9 9 0 14 15 15 46 3
56 14 78 52 101 38 22 40 37 3 17 -36 -18 -43 -18 -43 1 0 9 -6 15 -12 14 -26
-3 -38 1 -38 15 0 9 -7 12 -21 9 -17 -5 -20 -2 -17 18 2 17 17 31 48 47 44 22
44 23 10 16 -19 -4 -38 -11 -41 -16 -3 -5 -13 -6 -21 -3 -9 4 -35 1 -58 -5
-34 -9 -51 -8 -91 5 -50 17 -51 17 -72 -6 -31 -33 -31 -60 -1 -92 14 -15 24
-35 22 -45 -3 -12 -13 -3 -36 32 -18 28 -32 55 -32 61 0 6 -22 17 -49 24 -57
14 -72 27 -125 103 -23 35 -48 59 -63 63 -14 3 -23 8 -20 11 8 8 -25 44 -40
44 -7 0 -13 -7 -13 -16 0 -8 4 -12 10 -9 6 3 10 1 10 -5 0 -18 -44 -7 -48 11
-2 9 4 24 13 32 8 9 11 18 6 22 -6 3 -15 -3 -21 -12 -11 -17 -11 -17 -6 0 3
10 6 26 6 34 0 10 6 14 20 10 11 -3 20 -1 20 4 0 5 -8 9 -17 10 -12 0 -13 2
-5 6 10 4 9 8 -5 18 -16 12 -14 14 19 12 21 -1 38 -4 38 -7 0 -3 11 -5 25 -5
15 0 23 5 21 11 -2 6 1 17 7 23 14 14 -6 31 -36 31 -10 0 -15 5 -12 10 3 5 -1
10 -9 10 -9 0 -16 4 -16 9 0 5 -11 12 -25 15 -14 4 -25 11 -25 16 0 5 -7 7
-15 3 -10 -3 -15 -1 -13 7 2 7 -3 15 -11 18 -8 2 -11 0 -8 -5 3 -5 -6 -10 -21
-11 -71 -5 -78 -2 -84 32 -4 23 15 31 34 14 21 -20 58 -39 58 -31 0 5 -29 25
-63 45 l-63 37 8 78 c18 160 87 360 141 411 24 23 25 23 68 5 24 -9 59 -27 77
-39 46 -32 169 -81 249 -100 88 -22 132 -14 184 33 45 41 62 90 53 157 -6 41
-5 46 10 40 26 -10 56 24 56 62 0 18 -4 36 -10 39 -19 11 -10 25 15 25 54 0
97 79 60 110 -8 7 -15 19 -15 26 0 13 11 17 80 28 49 8 98 41 106 71 4 17 -3
40 -24 79 -29 51 -93 212 -107 267 -8 31 12 83 55 142 23 32 34 63 44 127 26
155 28 211 11 293 -9 44 -13 92 -9 112 5 26 3 35 -7 35 -11 1 -11 3 1 13 25
21 85 135 80 153 -1 4 3 10 9 14 7 3 13 22 15 41 2 19 7 43 11 53 6 13 5 17
-2 13 -6 -4 -13 -1 -16 5 -4 14 -37 -55 -37 -78 0 -7 -4 -16 -10 -19 -5 -3
-10 -4 -10 -2 0 14 33 96 48 117 17 25 25 94 16 138 -7 37 -19 25 -22 -24 -3
-45 -19 -114 -41 -179 l-11 -30 4 35 c2 19 9 53 15 75 21 74 23 107 5 126 -9
10 -13 23 -9 28 3 6 1 11 -4 11 -6 0 -11 6 -11 14 0 8 -11 23 -25 34 -14 11
-25 24 -25 28 0 4 5 3 12 -4 15 -15 28 -15 28 -1 0 5 -4 8 -9 5 -5 -4 -11 -2
-13 3 -1 6 -14 11 -28 13 -14 2 -35 9 -47 16 -21 12 -95 39 -215 81 -52 17
-67 35 -18 21 16 -5 33 -11 37 -13 22 -13 113 -35 113 -26 0 5 -7 9 -15 9 -8
0 -15 5 -15 11 0 5 6 7 13 3 9 -5 9 -4 0 6 -10 11 -15 11 -28 0 -12 -10 -18
-11 -28 -1 -9 10 -8 11 8 6 19 -6 19 -6 2 8 -14 11 -15 16 -5 20 11 4 11 6 0
6 -7 1 -11 5 -8 9 9 14 -32 11 -45 -4 -15 -19 -27 -18 -25 2 0 9 -5 19 -13 22
-8 3 -11 0 -7 -7 4 -6 2 -11 -3 -11 -6 0 -11 5 -11 11 0 5 -4 7 -10 4 -5 -3
-18 -1 -27 5 -16 9 -15 10 5 5 12 -4 22 -2 22 4 0 5 -8 12 -17 14 -11 3 -7 5
10 6 15 1 27 -4 27 -11 0 -9 4 -8 10 2 7 12 3 16 -23 21 -30 6 -30 6 -5 8 25
1 52 21 29 21 -6 0 -11 4 -11 9 0 14 34 8 46 -8 6 -8 16 -11 22 -7 6 4 21 2
33 -5 17 -9 20 -8 14 2 -6 9 -3 11 9 6 9 -4 15 -3 11 2 -3 5 0 11 7 13 6 2 8
10 4 16 -10 17 -29 15 -22 -3 7 -20 -3 -19 -27 3 -11 9 -17 11 -13 5 9 -17
-30 -18 -40 -1 -5 8 -2 9 10 5 10 -4 15 -3 11 3 -3 6 -13 10 -20 10 -8 0 -13
6 -11 13 1 6 1 9 -1 5 -3 -5 -26 -8 -51 -9 l-47 -1 35 -9 c19 -4 41 -6 48 -4
6 2 12 0 12 -5 0 -6 -14 -10 -31 -10 -27 0 -30 -2 -19 -15 7 -8 11 -15 9 -16
-31 -6 -38 -5 -43 8 -3 8 -1 11 4 8 6 -3 10 1 10 9 0 10 -6 13 -16 9 -9 -3
-14 -13 -11 -23 3 -13 -2 -19 -19 -23 -13 -2 -24 0 -24 4 0 5 7 9 15 9 8 0 15
5 15 11 0 6 -12 8 -32 5 -33 -6 -22 2 27 20 19 6 18 7 -5 14 -20 6 -21 8 -6 9
20 1 20 1 0 16 -10 8 -23 14 -29 15 -5 0 -4 -4 3 -8 18 -12 4 -42 -26 -53 -14
-5 -26 -8 -26 -7 -1 2 -8 14 -14 28 -12 24 -12 24 -8 2 3 -18 1 -22 -10 -18
-9 3 -12 1 -9 -4 3 -6 14 -10 23 -10 15 -1 14 -3 -3 -16 -18 -13 -20 -13 -27
6 -4 11 -14 20 -23 20 -9 0 -15 9 -15 23 0 35 -21 59 -40 46 -13 -9 -12 -10 3
-5 11 3 16 2 12 -4 -11 -17 -25 -11 -35 15 -6 16 -18 25 -32 26 -22 1 -22 1 2
9 l25 8 -23 1 c-13 1 -36 10 -52 21 -46 33 -113 58 -135 50 -12 -4 -25 -1 -33
7 -7 7 -23 13 -35 12 -21 0 -21 -1 -2 -9z m165 -80 c8 -5 11 -10 5 -10 -5 0
-17 5 -25 10 -8 5 -10 10 -5 10 6 0 17 -5 25 -10z m-266 -32 c-25 -30 -36 -38
-54 -38 -13 0 -13 1 0 10 12 7 8 10 -15 11 -34 1 -27 5 28 14 21 3 35 10 32
16 -4 5 2 9 11 9 16 0 15 -2 -2 -22z m-1211 5 c-7 -2 -21 -2 -30 0 -10 3 -4 5
12 5 17 0 24 -2 18 -5z m1332 -33 c-4 -6 -10 -8 -14 -5 -5 2 -23 0 -40 -5 -28
-8 -31 -7 -21 5 14 17 85 21 75 5z m39 -45 c-4 -8 -11 -15 -16 -15 -6 0 -5 6
2 15 7 8 14 15 16 15 2 0 1 -7 -2 -15z m-1449 -15 c2 -4 -9 -6 -25 -4 -18 2
-30 -1 -30 -8 0 -6 -3 -9 -6 -5 -3 3 -3 10 0 15 7 11 54 13 61 2z m695 6 c0
-13 -13 -35 -19 -32 -4 3 -8 -6 -9 -19 -1 -13 5 -26 15 -29 13 -5 14 -4 4 8
-11 13 -8 15 14 13 14 -1 30 -9 35 -17 7 -11 9 -10 7 8 0 12 -9 24 -18 27 -11
4 -15 13 -12 25 5 17 7 17 29 -7 14 -15 22 -33 19 -41 -3 -7 -5 -18 -5 -23 0
-6 -10 -7 -22 -3 -20 6 -21 5 -9 -10 7 -9 11 -16 8 -16 -13 0 -83 43 -94 58
-13 16 -19 51 -7 39 4 -3 16 0 28 8 20 15 36 19 36 11z m1025 -6 c3 -5 1 -10
-4 -10 -6 0 -11 5 -11 10 0 6 2 10 4 10 3 0 8 -4 11 -10z m-1145 -4 c0 -3 -4
-8 -10 -11 -5 -3 -10 -1 -10 4 0 6 5 11 10 11 6 0 10 -2 10 -4z m-595 -34 c-3
-3 -11 0 -18 7 -9 10 -8 11 6 5 10 -3 15 -9 12 -12z m1857 10 c-14 -10 15 -38
89 -87 38 -24 44 -33 33 -43 -8 -7 -15 -8 -19 -2 -3 6 0 10 7 10 23 0 -97 73
-126 76 -39 5 -46 14 -11 14 22 0 25 3 16 13 -11 14 -5 27 13 27 7 0 6 -4 -2
-8z m85 -44 c0 -13 -1 -17 -4 -10 -3 6 -14 12 -26 13 -20 1 -20 2 3 9 14 4 25
8 25 9 1 1 1 -9 2 -21z m-737 -58 c0 -5 -5 -10 -11 -10 -5 0 -7 5 -4 10 3 6 8
10 11 10 2 0 4 -4 4 -10z m890 0 c0 -5 -6 -10 -12 -10 -9 0 -8 -3 2 -10 8 -5
12 -11 9 -14 -10 -11 -29 11 -23 27 7 18 24 23 24 7z m-24 -73 c8 3 14 3 14 0
0 -14 -30 -14 -41 1 -11 14 -11 15 0 5 7 -6 20 -9 27 -6z m-686 -11 c0 -14
-29 -31 -38 -21 -6 6 18 35 29 35 5 0 9 -6 9 -14z m-485 -56 c3 -5 1 -10 -4
-10 -6 0 -11 5 -11 10 0 6 2 10 4 10 3 0 8 -4 11 -10z m1412 -26 c-3 -3 -12
-4 -19 -1 -8 3 -5 6 6 6 11 1 17 -2 13 -5z m-703 -45 c-3 -5 -15 -9 -26 -9
-20 0 -20 1 -5 18 10 10 16 21 15 23 -2 2 2 -2 9 -10 7 -8 10 -18 7 -22z m721
7 c25 -11 33 -19 29 -30 -3 -9 -8 -16 -11 -16 -3 0 -2 7 1 16 4 11 2 15 -7 11
-7 -3 -24 4 -38 14 -29 22 -20 24 26 5z m-1165 -5 c0 -5 -5 -22 -10 -36 -9
-23 -8 -26 5 -21 9 3 14 2 11 -2 -2 -4 -1 -14 5 -22 7 -12 9 -11 9 6 0 11 7
29 15 40 15 18 15 18 9 -8 -4 -20 -2 -28 7 -28 11 0 11 -2 -1 -10 -8 -5 -16
-19 -16 -30 -1 -16 4 -20 20 -18 17 2 21 9 19 33 -1 16 -7 31 -13 33 -5 2 -10
8 -10 14 0 5 6 8 13 5 6 -2 19 -1 28 4 10 5 27 3 43 -4 27 -12 35 -27 15 -27
-8 0 -7 -6 2 -17 8 -9 9 -14 3 -10 -15 9 -25 -26 -13 -44 6 -10 9 -11 9 -1 0
6 7 12 16 12 8 0 12 -4 9 -10 -3 -6 1 -7 10 -3 13 5 14 7 3 14 -7 5 -8 9 -2 9
6 0 17 11 24 25 7 13 17 22 22 19 14 -9 9 -36 -9 -50 -17 -13 -17 -14 0 -8 18
6 21 -3 11 -30 -3 -9 -11 -13 -17 -9 -6 4 -7 1 -2 -6 5 -9 10 -10 18 -2 6 6
15 11 21 11 5 0 1 -8 -10 -19 -15 -14 -22 -16 -33 -7 -11 9 -13 8 -9 -4 6 -19
-42 -62 -64 -57 -10 3 -27 -5 -40 -18 -12 -13 -28 -20 -36 -18 -10 5 -13 -3
-11 -28 3 -35 -5 -59 -21 -59 -5 0 -6 8 -3 18 6 15 5 16 -13 2 -10 -8 -25 -21
-32 -27 -7 -7 -20 -13 -28 -13 -8 0 -14 -5 -14 -11 0 -5 -4 -7 -10 -4 -5 3
-10 1 -10 -5 0 -12 -67 -3 -86 11 -6 5 -15 5 -19 1 -5 -4 -5 -1 -1 6 5 8 13 9
26 2 28 -15 69 -9 62 9 -4 10 -7 11 -10 3 -2 -7 -11 -12 -20 -12 -15 1 -14 3
2 15 13 10 23 11 31 5 13 -11 40 12 28 23 -3 4 5 8 18 8 17 1 19 3 7 6 -20 5
-22 12 -10 31 9 13 42 6 42 -9 0 -5 5 -9 12 -9 6 0 4 8 -6 19 -21 23 -3 34 29
19 14 -7 13 -4 -5 11 -21 17 -26 17 -33 5 -4 -8 -12 -14 -17 -14 -13 0 -5 31
11 41 10 6 10 9 2 9 -7 0 -13 5 -13 11 0 6 7 9 14 6 11 -4 13 -1 9 10 -5 12
-2 14 8 9 8 -4 6 -1 -3 7 -10 8 -14 18 -10 22 4 5 2 5 -5 1 -7 -3 -14 2 -18
14 -3 11 -13 20 -21 20 -8 0 -14 5 -14 11 0 6 6 9 14 6 10 -4 13 5 12 41 -2
27 4 57 12 70 15 22 32 30 32 13z m86 -3 c5 -7 3 -8 -6 -3 -10 6 -12 4 -7 -8
3 -10 2 -17 -3 -17 -11 0 -13 23 -3 33 9 9 11 9 19 -5z m144 -2 c0 -3 -4 -8
-10 -11 -5 -3 -10 -1 -10 4 0 6 5 11 10 11 6 0 10 -2 10 -4z m-1516 -15 c4 -5
-3 -7 -14 -4 -23 6 -26 13 -6 13 8 0 17 -4 20 -9z m1676 5 c0 -2 -7 -7 -16
-10 -8 -3 -12 -2 -9 4 6 10 25 14 25 6z m-1710 -60 c0 -3 -4 -8 -10 -11 -5 -3
-10 -1 -10 4 0 6 5 11 10 11 6 0 10 -2 10 -4z m1264 -12 c10 -25 -1 -29 -14
-5 -6 12 -7 21 -1 21 5 0 12 -7 15 -16z m251 6 c-3 -5 -11 -10 -16 -10 -6 0
-7 5 -4 10 3 6 11 10 16 10 6 0 7 -4 4 -10z m-140 -20 c-3 -5 -1 -10 6 -10 7
0 10 -3 6 -6 -9 -9 -28 6 -22 17 4 5 8 9 11 9 3 0 2 -4 -1 -10z m-302 -35 c-3
-9 -8 -14 -10 -11 -3 3 -2 9 2 15 9 16 15 13 8 -4z m-843 -9 c0 -2 -8 -10 -17
-17 -16 -13 -17 -12 -4 4 13 16 21 21 21 13z m1039 -15 c7 -5 11 -13 7 -19 -3
-6 -1 -12 6 -14 9 -3 9 -6 1 -11 -7 -4 -18 5 -26 23 -16 31 -13 36 12 21z
m366 -11 c-3 -5 -11 -10 -16 -10 -6 0 -7 5 -4 10 3 6 11 10 16 10 6 0 7 -4 4
-10z m-432 -17 c-5 -12 -2 -15 10 -10 9 3 17 2 17 -3 0 -6 -7 -10 -16 -10 -8
0 -12 -5 -9 -10 4 -6 11 -8 16 -5 5 4 9 1 9 -4 0 -13 -10 -14 -29 -2 -7 5 -11
13 -7 19 3 6 1 12 -6 14 -6 2 -8 10 -4 16 11 18 26 14 19 -5z m-1273 -15 c8 2
11 1 7 -4 -4 -4 3 -14 15 -21 l23 -14 -25 7 c-30 8 -69 35 -70 48 0 5 8 2 18
-6 9 -9 24 -13 32 -10z m270 -40 c0 -6 -9 -1 -19 11 -11 12 -22 22 -26 21 -4
-1 -10 2 -13 6 -4 4 -1 4 6 0 6 -4 12 -2 12 3 0 6 9 2 20 -9 11 -11 20 -25 20
-32z m1074 10 c-3 -5 -12 -2 -20 6 -20 21 -17 28 5 14 11 -7 17 -16 15 -20z
m-99 -8 c3 -5 1 -10 -4 -10 -6 0 -18 -16 -26 -37 -21 -50 -29 -36 -8 15 16 42
26 51 38 32z m380 0 c3 -5 -1 -10 -10 -10 -9 0 -13 5 -10 10 3 6 8 10 10 10 2
0 7 -4 10 -10z m-77 -35 c-2 -1 -16 -5 -32 -9 -25 -6 -28 -5 -17 7 6 8 21 13
32 10 11 -3 18 -7 17 -8z m-732 -21 c-4 -9 -9 -15 -11 -12 -3 3 -3 13 1 22 4
9 9 15 11 12 3 -3 3 -13 -1 -22z m914 -5 c0 -5 -6 -9 -13 -9 -8 0 -14 6 -14
14 0 8 6 12 14 9 7 -3 13 -9 13 -14z m923 1 c-3 -12 -8 -19 -11 -16 -5 6 5 36
12 36 2 0 2 -9 -1 -20z m-887 -7 c-2 -9 -11 -17 -20 -19 -17 -2 -17 -2 0 17
21 23 23 23 20 2z m-156 -18 c0 -9 -6 -12 -15 -9 -8 4 -12 10 -9 15 8 14 24
10 24 -6z m-420 -17 c0 -9 4 -8 10 2 5 8 10 11 10 6 0 -5 -7 -18 -17 -28 -20
-23 -48 -24 -39 -2 3 9 6 20 6 25 0 5 7 9 15 9 8 0 15 -6 15 -12z m115 -8 c3
-5 1 -10 -4 -10 -6 0 -11 5 -11 10 0 6 2 10 4 10 3 0 8 -4 11 -10z m-215 -10
c8 -5 11 -10 5 -10 -5 0 -17 5 -25 10 -8 5 -10 10 -5 10 6 0 17 -5 25 -10z
m160 -6 c0 -8 -4 -12 -10 -9 -5 3 -10 10 -10 16 0 5 5 9 10 9 6 0 10 -7 10
-16z m440 -24 c0 -5 -8 -10 -17 -10 -15 0 -16 2 -3 10 19 12 20 12 20 0z m920
1 c0 -18 -52 -71 -68 -71 -11 0 -5 7 15 19 17 11 34 29 38 40 7 22 15 28 15
12z m-1930 -10 c0 -9 -27 -41 -35 -41 -2 0 2 11 8 25 12 25 27 34 27 16z
m1030 -11 c0 -5 -5 -10 -11 -10 -5 0 -7 5 -4 10 3 6 8 10 11 10 2 0 4 -4 4
-10z m-557 -15 c35 -8 80 -22 100 -30 48 -20 67 -19 40 3 l-23 17 30 1 c25 1
29 -2 24 -20 -4 -17 1 -24 29 -34 40 -15 84 -16 92 -2 4 6 -1 7 -12 3 -16 -6
-16 -5 -4 11 14 16 15 16 25 -1 6 -10 11 -22 11 -27 0 -4 29 -19 65 -33 36
-13 77 -35 91 -49 16 -15 32 -22 42 -18 10 3 17 2 17 -4 0 -6 -5 -12 -11 -14
-14 -5 44 -114 59 -111 6 2 9 -3 6 -11 -6 -16 58 -41 82 -32 32 12 160 36 195
36 24 0 43 -7 57 -22 12 -13 42 -44 67 -70 50 -51 58 -74 23 -64 -80 23 -115
12 -199 -57 -38 -31 -159 -204 -159 -226 0 -6 -6 -11 -13 -11 -7 0 -17 -10
-22 -22 -6 -13 -38 -38 -73 -56 -60 -32 -63 -35 -49 -55 8 -12 35 -33 60 -47
64 -36 92 -65 94 -97 2 -28 2 -27 -17 7 l-19 35 -2 -30 c-2 -30 -2 -30 -8 5
-5 24 -11 34 -21 31 -38 -9 -71 -10 -65 -1 3 6 17 10 31 10 37 0 29 13 -24 34
-26 10 -54 25 -64 33 -14 13 -17 12 -22 -4 -3 -10 -19 -27 -36 -38 -16 -11
-30 -24 -30 -30 -2 -72 -23 -141 -70 -224 -53 -94 -70 -160 -46 -184 14 -14 9
-40 -6 -31 -17 11 -26 -16 -18 -51 6 -25 4 -35 -6 -39 -18 -7 -29 13 -15 27 6
6 11 16 11 21 0 6 -7 0 -16 -12 -12 -18 -13 -26 -4 -37 14 -17 5 -35 -18 -36
-11 0 -13 -2 -4 -6 10 -4 10 -8 1 -19 -9 -11 -9 -14 0 -14 24 0 -9 -38 -39
-45 -17 -4 -30 -13 -30 -21 0 -9 -4 -12 -10 -9 -5 3 -10 1 -10 -5 0 -6 -5 -8
-10 -5 -6 3 -13 -1 -16 -9 -9 -25 -23 -19 -16 7 4 18 -1 15 -28 -15 -38 -43
-51 -48 -45 -18 4 22 -9 27 -21 9 -5 -8 -10 -6 -16 5 -5 9 -14 16 -20 16 -6 0
-6 -6 2 -16 11 -12 11 -15 0 -12 -7 2 -15 -3 -18 -11 -3 -9 0 -11 8 -6 9 5 11
4 6 -4 -4 -6 -11 -9 -16 -6 -15 9 -17 -20 -2 -31 9 -6 15 -25 15 -43 0 -18 5
-31 13 -31 15 0 38 -64 32 -88 -4 -13 1 -17 21 -17 16 0 25 -5 23 -12 -1 -7 2
-13 8 -13 5 0 10 5 10 10 0 21 30 -6 49 -43 16 -32 17 -39 5 -51 -18 -19 -36
-66 -25 -66 5 0 11 -9 14 -20 4 -15 -1 -22 -18 -26 -13 -3 -30 -2 -37 2 -7 5
-22 10 -33 11 -11 1 -32 5 -47 8 -24 6 -34 0 -78 -46 -39 -41 -49 -48 -44 -30
4 16 3 21 -5 17 -6 -4 -22 5 -36 20 -19 21 -22 30 -14 40 8 10 9 47 4 121 -8
127 -8 120 -2 160 4 23 2 30 -7 27 -9 -4 -13 6 -12 33 1 29 5 37 17 35 9 -1
16 5 16 13 0 9 -6 14 -14 11 -15 -6 -18 10 -4 18 9 6 34 98 34 124 0 6 4 12 9
12 4 0 8 7 8 15 0 8 6 12 14 9 23 -9 40 49 21 75 -8 12 -6 13 8 8 11 -4 17 -1
17 9 0 10 8 13 25 10 30 -6 32 5 6 21 -14 9 -21 9 -23 2 -2 -7 -9 -5 -17 5
-12 14 -12 16 3 10 10 -4 16 -1 16 9 0 8 -4 17 -10 19 -6 2 -6 8 0 18 8 13 10
12 10 -2 0 -10 5 -18 10 -18 6 0 10 -6 10 -14 0 -7 7 -19 15 -26 8 -6 13 -21
12 -33 -2 -17 4 -21 31 -23 32 -2 32 -1 12 13 -11 8 -18 19 -15 24 4 5 -5 14
-19 20 -19 9 -23 17 -21 40 4 27 -8 43 -30 44 -5 0 -11 4 -12 8 -1 5 -14 24
-29 44 -21 28 -24 37 -13 44 12 7 12 9 0 9 -9 0 -10 4 -4 13 17 21 23 59 8 54
-7 -3 -18 0 -24 6 -8 8 -11 6 -11 -7 0 -15 -2 -16 -15 -2 -8 8 -15 16 -15 19
0 6 34 2 48 -7 9 -6 11 -1 8 18 -3 17 -1 24 6 20 6 -4 9 -1 6 7 -3 8 -13 13
-23 12 -11 -1 -14 2 -8 8 6 6 19 11 30 12 14 1 19 6 15 16 -4 10 -1 13 11 8
18 -7 24 8 8 18 -6 3 -6 18 1 37 8 23 8 36 -1 49 -7 12 -7 19 -1 19 5 0 10 -4
10 -10 0 -5 11 -10 24 -10 14 0 28 5 31 10 10 16 43 12 53 -6 8 -15 11 -15 31
5 11 11 21 25 21 29 0 5 9 17 21 28 12 11 18 26 15 38 -3 10 -1 15 4 10 4 -5
10 -20 12 -34 2 -20 9 -25 31 -25 15 1 27 -4 27 -10 0 -5 5 -3 10 5 7 11 10
11 10 2 0 -23 15 -5 76 85 64 97 138 233 126 233 -4 0 -34 -30 -67 -66 -67
-73 -90 -79 -115 -26 -7 15 -20 42 -29 61 -9 18 -26 40 -38 48 -13 9 -23 23
-23 33 0 20 -34 47 -93 75 -20 9 -43 28 -50 42 -12 25 -31 38 -99 68 -25 10
-38 22 -38 35 0 11 -1 20 -2 20 -2 0 -28 -7 -58 -15 -73 -20 -99 -19 -106 3
-3 9 -11 27 -17 40 -14 30 -7 35 92 66 117 37 128 45 61 46 -104 2 -179 25
-155 49 6 5 30 11 55 12 25 1 51 5 58 7 18 6 15 19 -8 25 -30 8 -24 34 9 42
29 6 169 0 212 -9 44 -10 119 -14 114 -7 -2 4 -29 13 -59 20 -57 13 -118 50
-84 51 9 0 46 -7 81 -15z m407 6 c0 -5 -8 -17 -17 -27 -16 -16 -16 -16 7 -10
24 7 24 6 6 -8 -26 -21 -35 -20 -31 2 2 9 4 25 4 35 1 17 31 25 31 8z m1010 5
c0 -3 -4 -8 -10 -11 -5 -3 -10 -1 -10 4 0 6 5 11 10 11 6 0 10 -2 10 -4z
m-1188 -31 c-2 -14 -6 -25 -8 -25 -2 0 -4 11 -4 25 0 14 4 25 9 25 4 0 6 -11
3 -25z m238 16 c0 -12 -20 -25 -27 -18 -7 7 6 27 18 27 5 0 9 -4 9 -9z m55
-10 c-3 -6 -11 -11 -17 -11 -6 0 -6 6 2 15 14 17 26 13 15 -4z m-321 -15 c-3
-9 -10 -16 -15 -16 -6 0 -5 9 1 21 13 24 24 20 14 -5z m66 14 c0 -5 -5 -10
-11 -10 -5 0 -7 5 -4 10 3 6 8 10 11 10 2 0 4 -4 4 -10z m-812 -12 c19 -19 14
-28 -13 -28 -24 0 -34 18 -18 33 9 10 17 9 31 -5z m-58 -33 c-7 -9 -15 -13
-17 -11 -6 6 20 36 26 30 2 -2 -2 -10 -9 -19z m1063 5 c-3 -10 -12 -25 -21
-32 -13 -11 -12 -8 2 20 19 36 27 41 19 12z m117 10 c0 -5 -5 -10 -11 -10 -5
0 -7 5 -4 10 3 6 8 10 11 10 2 0 4 -4 4 -10z m820 -4 c0 -3 -4 -8 -10 -11 -5
-3 -10 -1 -10 4 0 6 5 11 10 11 6 0 10 -2 10 -4z m-1885 -36 c8 -16 15 -33 15
-37 -1 -17 -27 -42 -51 -48 -20 -5 -27 -1 -37 19 -14 31 0 76 23 76 8 0 15 5
15 10 0 20 20 9 35 -20z m898 -5 c-3 -8 -10 -15 -15 -15 -7 0 -6 5 1 13 6 8 7
18 3 22 -4 5 -2 5 5 1 7 -4 10 -13 6 -21z m-38 5 c8 -13 -5 -13 -25 0 -13 8
-13 10 2 10 9 0 20 -4 23 -10z m-963 -69 c10 -18 14 -30 10 -27 -5 3 -16 -16
-25 -42 -9 -26 -16 -41 -16 -35 -1 10 -7 10 -26 1 -15 -7 -24 -17 -21 -25 8
-19 0 -16 -28 10 -13 12 -32 28 -41 36 -35 28 -6 109 49 138 26 14 74 -13 98
-56z m18 62 c0 -5 -5 -15 -10 -23 -8 -12 -10 -11 -10 8 0 12 5 22 10 22 6 0
10 -3 10 -7z m1078 -5 c-7 -32 -57 -45 -66 -18 -3 9 1 11 11 7 8 -3 23 1 34 8
23 18 24 18 21 3z m-3 -66 c-3 -3 -11 0 -18 7 -9 10 -8 11 6 5 10 -3 15 -9 12
-12z m-732 -187 c-3 -9 -8 -14 -10 -11 -3 3 -2 9 2 15 9 16 15 13 8 -4z m-173
-89 c0 -3 -4 -8 -10 -11 -5 -3 -10 -1 -10 4 0 6 5 11 10 11 6 0 10 -2 10 -4z
m-150 -106 c0 -5 -2 -10 -4 -10 -3 0 -8 5 -11 10 -3 6 -1 10 4 10 6 0 11 -4
11 -10z m580 -30 c6 -11 8 -20 6 -20 -3 0 -10 9 -16 20 -6 11 -8 20 -6 20 3 0
10 -9 16 -20z m1 -113 c-13 -13 -14 5 -3 54 l7 34 3 -39 c2 -21 -1 -43 -7 -49z
m313 48 c-4 -8 -11 -15 -16 -15 -6 0 -5 6 2 15 7 8 14 15 16 15 2 0 1 -7 -2
-15z m-30 -40 c-4 -8 -11 -15 -16 -15 -6 0 -5 6 2 15 7 8 14 15 16 15 2 0 1
-7 -2 -15z m-273 -29 c-9 -11 -10 -20 -1 -35 6 -12 8 -21 6 -21 -3 0 -10 9
-16 21 -9 15 -8 24 1 35 6 8 14 14 16 14 3 0 0 -6 -6 -14z m113 -15 c3 -5 -1
-11 -9 -15 -9 -3 -15 0 -15 9 0 16 16 20 24 6z m22 -37 c-3 -8 -10 -14 -15
-14 -10 0 -9 14 5 45 8 18 9 19 12 2 2 -10 1 -25 -2 -33z m-362 -19 c-40 -38
-50 -43 -36 -19 7 13 60 54 70 54 2 0 -13 -16 -34 -35z m166 -7 c58 -96 -34
-188 -131 -131 -42 25 -36 36 7 13 19 -11 32 -15 28 -9 -5 9 0 10 16 6 32 -8
58 8 74 46 12 28 11 36 -6 70 -23 46 -15 49 12 5z m-195 -218 c-3 -6 1 -13 10
-17 10 -3 21 0 25 8 5 7 11 11 14 8 9 -9 -10 -29 -31 -34 -13 -2 -24 3 -27 12
-6 14 0 33 10 33 3 0 2 -5 -1 -10z m50 -49 c5 -1 4 -6 -3 -13 -9 -9 -15 -9
-24 0 -9 9 -14 7 -24 -6 -7 -9 -15 -14 -19 -11 -10 11 23 38 42 34 10 -2 22
-4 28 -4z m-254 -54 c-10 -9 -11 -8 -5 6 3 10 9 15 12 12 3 -3 0 -11 -7 -18z
m116 -79 c-3 -8 -6 -5 -6 6 -1 11 2 17 5 13 3 -3 4 -12 1 -19z m859 -5 c25
-34 12 -63 -28 -63 -17 0 -27 4 -23 10 3 6 1 10 -4 10 -12 0 -15 29 -5 53 7
20 42 14 60 -10z m-822 -34 c-3 -5 2 -12 10 -15 9 -3 16 -16 16 -27 l0 -21
-19 20 c-26 29 -37 66 -17 58 9 -3 13 -10 10 -15z m62 -5 c-9 -9 -20 -14 -23
-10 -4 3 2 13 13 20 25 18 31 12 10 -10z m4 -48 c0 -2 -8 -10 -17 -17 -16 -13
-17 -12 -4 4 13 16 21 21 21 13z m10 -36 c0 -5 -2 -10 -4 -10 -3 0 -8 5 -11
10 -3 6 -1 10 4 10 6 0 11 -4 11 -10z m-17 -60 c8 -11 17 -17 22 -12 4 4 4 -3
0 -16 -5 -17 -1 -28 17 -43 13 -11 18 -18 12 -15 -13 7 -37 -18 -27 -27 3 -4
1 -7 -6 -7 -7 0 -9 9 -5 25 3 14 2 31 -4 38 -11 13 -12 17 -12 42 0 8 -7 15
-15 15 -8 0 -15 5 -15 10 0 17 18 11 33 -10z m-233 -85 c-10 -12 -10 -15 0
-15 9 0 10 -4 2 -13 -6 -7 -13 -30 -15 -51 -3 -20 -10 -43 -17 -49 -10 -9 -11
-9 -6 0 4 7 2 21 -3 30 -10 17 -10 17 -11 1 0 -10 -4 -18 -10 -18 -13 0 -13 1
6 46 15 36 15 37 -2 24 -16 -14 -16 -13 -5 8 6 12 17 22 24 22 7 0 18 9 25 21
7 12 16 18 19 15 3 -3 0 -12 -7 -21z m695 6 c3 -5 1 -12 -5 -16 -5 -3 -10 1
-10 9 0 18 6 21 15 7z m-435 -67 c0 -8 -5 -12 -10 -9 -6 4 -8 11 -5 16 9 14
15 11 15 -7z m-540 -290 c0 -8 5 -12 11 -9 6 4 24 -8 40 -26 33 -37 35 -41 14
-33 -8 4 -15 10 -15 15 0 5 -7 9 -15 9 -8 0 -15 5 -15 10 0 6 -3 9 -7 8 -5 -1
-19 4 -32 11 -19 10 -21 15 -10 22 21 13 29 11 29 -7z m90 -103 c0 6 5 7 12 3
9 -6 9 -9 0 -12 -7 -2 -10 -8 -6 -13 3 -5 0 -9 -5 -9 -6 0 -11 5 -11 10 0 6
-6 10 -14 10 -8 0 -18 4 -21 10 -4 7 3 7 19 0 18 -6 26 -6 26 1z m60 -62 c26
-36 35 -33 20 7 l-11 29 24 -30 c14 -16 25 -33 26 -37 1 -4 13 -19 26 -32 14
-14 25 -33 25 -42 0 -10 -14 2 -36 30 -20 26 -39 45 -42 42 -3 -4 0 -12 6 -18
17 -17 15 -33 -3 -18 -8 7 -15 17 -15 23 0 6 -14 26 -32 44 -18 18 -27 33 -21
33 7 0 21 -14 33 -31z m646 -126 c-10 -10 -19 5 -10 18 6 11 8 11 12 0 2 -7 1
-15 -2 -18z m-519 -5 c-3 -8 -6 -5 -6 6 -1 11 2 17 5 13 3 -3 4 -12 1 -19z
m843 -71 c0 -10 5 -28 11 -39 16 -30 -1 -42 -42 -29 l-34 11 33 -5 c24 -3 32
-1 32 10 0 8 -9 16 -20 16 -11 1 -24 3 -30 4 -5 1 -14 3 -20 4 -5 0 -10 5 -10
10 0 10 40 8 58 -2 6 -5 8 0 5 13 -3 11 -9 17 -14 14 -5 -3 -9 0 -9 5 0 6 -9
11 -21 11 -13 0 -18 -4 -13 -12 4 -7 3 -8 -4 -4 -7 4 -12 14 -12 22 0 11 7 13
26 8 21 -5 25 -4 19 6 -5 7 4 5 18 -6 15 -10 27 -27 27 -37z m-834 21 c3 -4
-1 -5 -10 -4 -8 1 -18 5 -22 8 -3 4 1 5 10 4 8 -1 18 -5 22 -8z m940 -85 c-10
-10 -19 5 -10 18 6 11 8 11 12 0 2 -7 1 -15 -2 -18z m-899 -25 c-3 -7 -5 -2
-5 12 0 14 2 19 5 13 2 -7 2 -19 0 -25z m758 1 c11 -16 1 -19 -13 -3 -7 8 -8
14 -3 14 5 0 13 -5 16 -11z m33 -44 c-3 -3 -9 2 -12 12 -6 14 -5 15 5 6 7 -7
10 -15 7 -18z m131 16 c3 0 -6 -13 -20 -27 -27 -28 -138 -99 -145 -92 -2 3 12
13 31 24 20 10 41 31 48 46 6 16 15 28 19 28 5 0 8 4 8 10 0 5 -8 7 -17 4 -13
-4 -15 -3 -5 4 11 7 58 9 81 3z m-269 -137 c0 -8 -4 -14 -10 -14 -5 0 -10 9
-10 21 0 11 5 17 10 14 6 -3 10 -13 10 -21z m67 0 c-3 -3 -12 -4 -19 -1 -8 3
-5 6 6 6 11 1 17 -2 13 -5z m264 -89 c41 -13 67 -24 59 -24 -8 -1 -53 11 -98
26 -59 19 -78 29 -65 34 10 3 21 2 24 -3 3 -4 39 -19 80 -33z m-321 -180 c0
-8 -4 -15 -10 -15 -5 0 -7 7 -4 15 4 8 8 15 10 15 2 0 4 -7 4 -15z m825 -105
c3 -5 15 -10 26 -10 21 0 24 -12 9 -40 -9 -16 -15 -18 -37 -9 -14 5 -32 17
-39 27 -11 14 -10 19 3 30 20 15 30 15 38 2z m-1671 -47 c-11 -69 -12 -103 -3
-103 6 0 7 9 4 20 -4 11 -2 20 4 20 6 0 11 -5 11 -11 0 -5 5 -7 10 -4 19 12
10 -14 -10 -28 -11 -8 -17 -17 -13 -20 3 -4 3 -7 0 -7 -12 0 -33 54 -35 87 -1
19 5 41 15 53 22 25 22 25 17 -7z m807 0 c13 -17 13 -17 -6 -3 -11 8 -22 16
-24 17 -2 2 0 3 6 3 6 0 17 -8 24 -17z m139 -7 c0 -3 -4 -8 -10 -11 -5 -3 -10
-1 -10 4 0 6 5 11 10 11 6 0 10 -2 10 -4z m-851 -20 c9 -10 8 -15 -2 -19 -8
-3 -13 3 -13 14 0 23 0 23 15 5z m767 -18 l19 -23 -25 20 c-14 11 -27 21 -29
22 -2 2 0 3 6 3 5 0 18 -10 29 -22z m111 7 c9 -24 -1 -27 -15 -5 -8 13 -8 20
-2 20 6 0 13 -7 17 -15z m-50 -102 c17 -15 -3 -22 -37 -13 -14 4 -33 3 -42 -2
-12 -6 -18 -5 -18 3 0 7 -3 10 -6 7 -3 -4 -19 8 -35 24 -33 35 -39 50 -10 24
11 -10 25 -15 30 -11 6 3 11 -2 11 -11 0 -16 1 -16 15 2 13 18 14 18 9 -6 -2
-14 -2 -19 2 -12 3 6 13 12 22 12 10 0 13 3 7 8 -5 4 -26 25 -45 47 -33 37
-32 36 25 -11 33 -27 65 -54 72 -61z m-189 66 c-19 -13 -28 -11 -28 5 0 9 7
12 21 9 16 -4 17 -8 7 -14z m259 -11 c-3 -8 -6 -5 -6 6 -1 11 2 17 5 13 3 -3
4 -12 1 -19z m-76 -5 c13 -15 12 -15 -8 -4 -24 12 -29 21 -14 21 5 0 15 -7 22
-17z m-166 -23 c4 -11 10 -18 15 -15 5 3 11 1 14 -4 11 -18 -11 -21 -26 -3
-23 27 -30 42 -19 42 5 0 13 -9 16 -20z m265 0 c0 -5 -4 -10 -10 -10 -5 0 -10
5 -10 10 0 6 5 10 10 10 6 0 10 -4 10 -10z m-887 -22 c-3 -18 3 -26 29 -37 18
-8 27 -16 20 -19 -8 -2 -9 -9 -2 -21 5 -10 6 -22 2 -26 -4 -5 -2 -5 4 -2 7 4
17 0 24 -8 10 -12 8 -14 -8 -10 -56 10 -78 44 -49 74 6 8 7 11 1 8 -6 -4 -19
2 -29 13 -15 16 -15 22 -5 35 17 20 18 19 13 -7z m1531 -4 c21 -8 20 -48 0
-69 -13 -13 -19 -14 -25 -4 -4 7 -5 17 -3 21 3 4 0 8 -6 8 -6 0 -8 6 -4 13 4
6 4 9 -1 5 -9 -9 -35 9 -35 23 0 10 50 12 74 3z m-1624 -14 c0 -5 -5 -10 -11
-10 -5 0 -7 5 -4 10 3 6 8 10 11 10 2 0 4 -4 4 -10z m90 -60 c0 -8 -49 -5 -57
3 -3 4 3 7 15 7 12 0 22 6 22 13 0 8 4 7 10 -3 5 -8 10 -17 10 -20z m1485 -39
c-6 -5 -25 10 -25 20 0 5 6 4 14 -3 8 -7 12 -15 11 -17z m-1350 -41 c3 -5 1
-10 -4 -10 -6 0 -11 5 -11 10 0 6 2 10 4 10 3 0 8 -4 11 -10z m1588 -50 c33
-32 49 -106 26 -121 -24 -14 -100 16 -83 34 9 9 -38 67 -49 60 -5 -3 -4 4 2
16 7 11 16 21 21 21 5 0 7 7 3 16 -9 24 47 7 80 -26z m-263 -104 c0 -3 -4 -8
-10 -11 -5 -3 -10 -1 -10 4 0 6 5 11 10 11 6 0 10 -2 10 -4z"/>
<path d="M1943 4143 c-18 -6 -16 -23 1 -23 17 0 30 16 19 23 -5 2 -14 2 -20 0z"/>
<path d="M1944 4085 c3 -13 -1 -26 -7 -28 -7 -2 -6 -3 2 -3 8 1 13 5 10 9 -2
5 4 13 14 18 23 13 22 24 -3 26 -16 1 -19 -3 -16 -22z"/>
<path d="M1830 4090 c0 -5 5 -10 10 -10 6 0 10 5 10 10 0 6 -4 10 -10 10 -5 0
-10 -4 -10 -10z"/>
<path d="M1860 4050 c0 -5 5 -10 11 -10 5 0 7 5 4 10 -3 6 -8 10 -11 10 -2 0
-4 -4 -4 -10z"/>
<path d="M1963 3995 c-3 -9 -3 -18 -1 -21 3 -3 8 4 11 16 6 23 -1 27 -10 5z"/>
<path d="M1870 3882 c6 -13 14 -21 18 -18 3 4 -2 14 -12 24 -18 16 -18 16 -6
-6z"/>
<path d="M1846 2853 c-23 -20 -26 -27 -15 -34 9 -5 15 -4 18 4 2 7 10 20 19
30 24 27 10 28 -22 0z"/>
<path d="M1638 2816 c-17 -23 -15 -36 5 -36 6 0 7 3 4 6 -9 10 12 46 24 39 5
-4 9 -1 9 4 0 19 -24 11 -42 -13z"/>
<path d="M1727 2829 c7 -7 15 -10 18 -7 3 3 -2 9 -12 12 -14 6 -15 5 -6 -5z"/>
<path d="M1793 2789 c4 -16 3 -18 -8 -9 -20 17 -24 -3 -4 -22 17 -16 19 -15
34 8 11 17 12 23 3 22 -7 -2 -12 3 -10 10 1 6 -3 12 -9 12 -7 0 -9 -9 -6 -21z"/>
<path d="M1729 2762 c-15 -17 -10 -62 7 -62 3 0 3 8 0 17 -4 9 -2 20 5 23 6 4
9 15 7 24 -3 15 -5 15 -19 -2z"/>
<path d="M1490 2740 c0 -5 5 -10 10 -10 6 0 10 5 10 10 0 6 -4 10 -10 10 -5 0
-10 -4 -10 -10z"/>
<path d="M1447 2546 c-3 -8 0 -19 7 -25 10 -9 12 -6 8 14 -5 29 -8 31 -15 11z"/>
<path d="M1496 2515 c-9 -26 -7 -32 5 -12 6 10 9 21 6 23 -2 3 -7 -2 -11 -11z"/>
<path d="M1762 2445 c-11 -12 -10 -15 3 -15 8 0 15 7 15 15 0 18 -2 18 -18 0z"/>
<path d="M1770 2387 c0 -10 -5 -14 -15 -11 -18 7 -45 -12 -45 -31 0 -8 8 -11
20 -8 14 4 20 0 20 -11 0 -9 -5 -16 -11 -16 -5 0 -7 -5 -4 -10 4 -6 0 -22 -9
-35 -9 -14 -13 -32 -9 -42 6 -16 5 -16 -10 -4 -9 7 -18 10 -18 5 -1 -5 -2 -13
-4 -19 -1 -5 -3 -16 -3 -23 -1 -7 -6 -11 -11 -8 -5 4 -7 -3 -4 -14 3 -11 9
-20 12 -20 13 0 80 72 87 92 3 10 10 16 15 12 5 -3 9 -2 8 3 -4 23 2 64 9 59
4 -2 9 6 10 20 1 13 -3 24 -9 24 -5 0 -8 3 -5 8 2 4 -2 16 -10 27 -12 16 -14
16 -14 2z m-11 -31 c10 -12 8 -13 -8 -9 -12 3 -18 9 -15 14 7 12 10 11 23 -5z"/>
<path d="M1484 2274 c-18 -14 -18 -15 4 -4 12 6 22 13 22 15 0 8 -5 6 -26 -11z"/>
<path d="M1441 2141 c-10 -19 -15 -21 -22 -10 -7 9 -7 5 -3 -13 4 -20 2 -28
-7 -28 -7 0 -5 -6 7 -14 14 -11 21 -11 27 -3 6 8 7 6 4 -5 -3 -9 -1 -19 6 -21
7 -2 8 -8 4 -13 -5 -5 -13 -1 -18 9 -6 9 -16 17 -24 17 -14 0 -15 -16 -2 -37
4 -6 2 -13 -3 -15 -6 -2 -15 -20 -19 -40 -6 -27 -5 -35 4 -32 6 3 12 -2 12
-10 0 -8 -4 -13 -9 -10 -4 3 -8 -2 -8 -11 0 -9 4 -14 8 -11 5 3 9 -1 9 -9 0
-18 -9 -19 -26 -2 -12 10 -13 8 -6 -8 4 -11 8 -25 8 -32 0 -8 6 -9 19 -2 16 9
17 7 6 -15 -6 -14 -15 -23 -21 -19 -6 3 -7 1 -3 -6 4 -6 12 -9 17 -6 5 4 9 -1
9 -10 0 -12 -6 -15 -22 -10 -18 5 -20 4 -8 -4 8 -6 23 -8 34 -5 12 4 16 2 12
-5 -4 -6 -14 -11 -22 -11 -8 0 -14 -5 -14 -11 0 -5 5 -7 10 -4 6 3 10 1 10 -4
0 -6 -4 -11 -8 -11 -5 0 -9 -7 -9 -15 0 -8 4 -12 9 -9 4 3 8 -4 8 -15 0 -15
-4 -19 -17 -14 -16 6 -16 5 -4 -10 8 -10 14 -26 15 -37 0 -11 6 -20 11 -20 6
1 9 8 9 15 -1 8 2 12 7 10 4 -3 18 4 30 16 15 15 18 24 10 28 -6 4 -9 15 -5
24 3 9 2 17 -3 17 -5 0 -9 16 -8 35 2 26 -2 35 -14 35 -10 0 -12 3 -5 8 7 4
11 30 9 67 -2 33 1 68 6 78 7 11 6 17 -1 17 -7 0 -9 9 -5 23 4 15 3 18 -3 9
-7 -11 -10 -11 -15 2 -4 9 -2 16 4 16 6 0 7 5 3 12 -5 7 -3 8 5 4 20 -13 40
25 39 74 -1 32 -3 39 -8 25 -6 -16 -8 -13 -11 15 -4 35 -4 35 -18 11z m26 -83
c-3 -7 -5 -2 -5 12 0 14 2 19 5 13 2 -7 2 -19 0 -25z"/>
<path d="M1470 2150 c0 -5 4 -10 9 -10 6 0 13 5 16 10 3 6 -1 10 -9 10 -9 0
-16 -4 -16 -10z"/>
<path d="M1628 2135 c-25 -34 -22 -43 3 -11 12 15 20 29 18 31 -2 1 -12 -7
-21 -20z"/>
<path d="M1511 1873 c-1 -16 10 -43 18 -43 4 0 8 7 8 15 0 8 -4 12 -8 9 -4 -2
-10 4 -12 13 -3 10 -5 13 -6 6z"/>
<path d="M1467 1846 c-4 -11 -1 -13 10 -9 13 5 13 3 4 -15 -6 -11 -8 -28 -5
-36 4 -9 1 -16 -6 -16 -9 0 -9 -4 1 -16 12 -14 14 -14 21 3 6 14 7 12 4 -7 -6
-30 7 -55 23 -46 6 4 11 3 11 -3 0 -5 -5 -12 -10 -14 -6 -3 -5 -4 2 -3 13 3
14 25 5 56 -3 8 -8 25 -12 38 -4 12 -12 22 -17 22 -6 0 -8 9 -5 20 6 24 -18
48 -26 26z"/>
<path d="M1545 1780 c-3 -5 1 -10 9 -10 9 0 16 5 16 10 0 6 -4 10 -9 10 -6 0
-13 -4 -16 -10z"/>
<path d="M1607 1727 c-3 -8 1 -14 8 -14 7 0 11 6 8 14 -3 7 -6 13 -8 13 -2 0
-5 -6 -8 -13z"/>
<path d="M1360 1616 c0 -2 7 -9 15 -16 13 -11 14 -10 9 4 -5 14 -24 23 -24 12z"/>
<path d="M870 3576 c0 -2 9 -6 20 -9 11 -3 18 -1 14 4 -5 9 -34 13 -34 5z"/>
<path d="M2700 946 c0 -2 7 -7 16 -10 8 -3 12 -2 9 4 -6 10 -25 14 -25 6z"/>
<path d="M2848 583 c7 -3 16 -2 19 1 4 3 -2 6 -13 5 -11 0 -14 -3 -6 -6z"/>
<path d="M2875 510 c3 -5 10 -10 16 -10 5 0 9 5 9 10 0 6 -7 10 -16 10 -8 0
-12 -4 -9 -10z"/>
<path d="M1985 4719 c-5 -7 77 0 85 8 2 2 -15 3 -38 2 -24 -2 -45 -6 -47 -10z"/>
<path d="M1375 4710 c3 -5 8 -10 11 -10 2 0 4 5 4 10 0 6 -5 10 -11 10 -5 0
-7 -4 -4 -10z"/>
<path d="M1140 4700 c0 -5 5 -10 11 -10 5 0 7 5 4 10 -3 6 -8 10 -11 10 -2 0
-4 -4 -4 -10z"/>
<path d="M1461 4700 c0 -8 4 -22 9 -30 12 -18 12 -2 0 25 -6 13 -9 15 -9 5z"/>
<path d="M2419 4699 c-8 -5 3 -7 28 -6 23 1 40 4 37 8 -5 9 -49 8 -65 -2z"/>
<path d="M1308 4683 c7 -3 16 -2 19 1 4 3 -2 6 -13 5 -11 0 -14 -3 -6 -6z"/>
<path d="M2158 4683 c7 -3 16 -2 19 1 4 3 -2 6 -13 5 -11 0 -14 -3 -6 -6z"/>
<path d="M1105 4670 c11 -5 27 -9 35 -9 9 0 8 4 -5 9 -11 5 -27 9 -35 9 -9 0
-8 -4 5 -9z"/>
<path d="M1230 4675 c0 -2 14 -10 30 -19 17 -8 30 -11 30 -6 0 4 -13 13 -30
19 -16 5 -30 8 -30 6z"/>
<path d="M1305 4651 c-3 -5 0 -13 6 -17 7 -4 9 -3 5 4 -3 5 0 13 6 15 9 4 10
6 1 6 -6 1 -14 -3 -18 -8z"/>
<path d="M1415 4640 c11 -14 25 -28 30 -32 6 -4 2 -8 -7 -8 -10 0 -18 -5 -18
-10 0 -7 6 -7 20 0 21 11 27 30 9 30 -5 0 -7 6 -3 13 4 6 3 9 -1 4 -5 -4 -18
1 -29 10 l-21 18 20 -25z"/>
<path d="M2481 4656 c2 -2 15 -9 29 -15 24 -11 24 -11 6 3 -16 13 -49 24 -35
12z"/>
<path d="M1208 4643 c12 -2 30 -2 40 0 9 3 -1 5 -23 4 -22 0 -30 -2 -17 -4z"/>
<path d="M1838 4643 c7 -3 16 -2 19 1 4 3 -2 6 -13 5 -11 0 -14 -3 -6 -6z"/>
<path d="M2835 4640 c3 -5 8 -10 11 -10 2 0 4 5 4 10 0 6 -5 10 -11 10 -5 0
-7 -4 -4 -10z"/>
<path d="M2810 4630 c0 -5 5 -10 11 -10 5 0 7 5 4 10 -3 6 -8 10 -11 10 -2 0
-4 -4 -4 -10z"/>
<path d="M1340 4624 c0 -11 20 -42 20 -31 0 5 7 1 16 -7 8 -9 20 -16 26 -16 6
0 9 1 7 3 -2 1 -19 15 -37 31 -17 17 -32 26 -32 20z"/>
<path d="M1728 4623 c7 -3 16 -2 19 1 4 3 -2 6 -13 5 -11 0 -14 -3 -6 -6z"/>
<path d="M2905 4625 c21 -7 179 -12 160 -4 -11 4 -54 8 -95 8 -41 -1 -70 -2
-65 -4z"/>
<path d="M1300 4616 c0 -2 7 -7 16 -10 8 -3 12 -2 9 4 -6 10 -25 14 -25 6z"/>
<path d="M2858 4613 c7 -3 16 -2 19 1 4 3 -2 6 -13 5 -11 0 -14 -3 -6 -6z"/>
<path d="M2808 4603 c6 -2 18 -2 25 0 6 3 1 5 -13 5 -14 0 -19 -2 -12 -5z"/>
<path d="M3132 4581 c25 -16 51 -38 57 -48 6 -10 11 -13 11 -6 0 15 -80 83
-99 83 -8 0 6 -13 31 -29z"/>
<path d="M1230 4596 c0 -2 7 -9 15 -16 9 -7 15 -8 15 -2 0 5 -7 12 -15 16 -8
3 -15 4 -15 2z"/>
<path d="M2785 4590 c3 -5 -3 -10 -12 -13 -17 -4 -17 -4 1 -12 12 -5 21 -3 27
6 5 8 9 9 9 3 0 -17 52 -22 84 -8 27 10 27 11 7 17 -13 3 -19 1 -15 -5 7 -11
-14 -8 -74 10 -18 6 -30 7 -27 2z"/>
<path d="M518 4583 c6 -2 18 -2 25 0 6 3 1 5 -13 5 -14 0 -19 -2 -12 -5z"/>
<path d="M1550 4586 c0 -2 11 -6 25 -8 13 -3 22 -1 19 3 -5 9 -44 13 -44 5z"/>
<path d="M1291 4564 c0 -11 3 -14 6 -6 3 7 2 16 -1 19 -3 4 -6 -2 -5 -13z"/>
<path d="M3100 4556 c0 -2 9 -6 20 -9 11 -3 18 -1 14 4 -5 9 -34 13 -34 5z"/>
<path d="M2992 4541 c-11 -7 -10 -9 3 -14 9 -4 13 -3 10 2 -3 6 12 12 32 14
l38 4 -35 1 c-19 1 -41 -2 -48 -7z"/>
<path d="M3166 4515 c9 -14 21 -25 27 -25 6 0 0 11 -13 25 -13 14 -25 25 -27
25 -2 0 4 -11 13 -25z"/>
<path d="M2938 4523 c6 -2 12 -11 12 -18 0 -7 7 -15 15 -19 13 -5 13 -2 -1 19
-9 14 -21 25 -28 24 -7 0 -6 -2 2 -6z"/>
<path d="M2870 4514 c45 -17 74 -24 64 -14 -5 5 -25 12 -44 15 -19 3 -28 3
-20 -1z"/>
<path d="M2834 4475 c-17 -26 -47 -35 -38 -11 8 20 -35 28 -54 10 -13 -13 -11
-14 12 -8 21 5 25 3 20 -10 -4 -11 0 -16 14 -16 12 0 24 -5 27 -10 4 -6 18 -9
33 -8 22 3 28 -3 39 -32 6 -19 12 -27 12 -17 1 10 -4 28 -10 39 -17 32 2 40
51 23 24 -8 46 -12 49 -9 3 4 0 9 -7 11 -6 3 -10 8 -7 12 2 5 -7 7 -20 5 -14
-1 -23 2 -20 6 6 10 -34 34 -43 26 -3 -3 0 -6 6 -6 21 0 13 -16 -13 -28 -19
-9 -25 -9 -25 0 0 7 -7 3 -15 -8 -13 -18 -14 -17 -6 11 5 19 14 29 24 29 9 -1
14 2 11 7 -9 15 -23 10 -40 -16z"/>
<path d="M3210 4487 c0 -4 7 -19 16 -32 9 -13 13 -29 9 -35 -3 -5 -1 -10 4
-10 17 0 13 22 -9 55 -11 17 -20 26 -20 22z"/>
<path d="M530 4456 c0 -2 8 -10 18 -17 15 -13 16 -12 3 4 -13 16 -21 21 -21
13z"/>
<path d="M391 4402 c6 -18 15 -35 20 -38 5 -3 4 7 -3 23 -17 41 -30 53 -17 15z"/>
<path d="M2990 4406 c0 -7 11 -17 25 -20 14 -4 25 -10 25 -15 0 -10 -19 -9
-37 2 -23 14 -39 -6 -32 -38 l7 -30 1 34 c1 34 14 36 16 3 1 -9 2 -29 3 -43 2
-20 8 -28 27 -31 13 -3 22 -1 19 3 -3 5 -12 9 -20 9 -8 0 -14 7 -14 15 0 18
16 20 24 3 3 -7 3 -3 0 9 -3 12 0 32 6 43 12 23 2 43 -32 61 -13 7 -18 6 -18
-5z m34 -70 c-3 -9 -10 -13 -15 -10 -5 3 -3 11 4 19 15 16 19 13 11 -9z"/>
<path d="M2947 4393 c7 -17 20 -17 26 1 4 10 0 14 -12 13 -11 -1 -17 -7 -14
-14z"/>
<path d="M3250 4381 c0 -11 4 -22 9 -25 4 -3 6 6 3 19 -5 30 -12 33 -12 6z"/>
<path d="M3056 4315 c4 -8 10 -15 15 -15 4 0 6 7 3 15 -4 8 -10 15 -15 15 -4
0 -6 -7 -3 -15z"/>
<path d="M2940 4302 c0 -10 41 -24 49 -17 6 7 0 11 -26 19 -13 4 -23 3 -23 -2z"/>
<path d="M427 4252 c4 -59 9 -72 28 -72 14 0 14 2 2 21 -11 15 -13 29 -7 50 7
23 5 31 -8 38 -16 8 -17 4 -15 -37z"/>
<path d="M3260 4289 c0 -5 5 -7 10 -4 6 3 10 8 10 11 0 2 -4 4 -10 4 -5 0 -10
-5 -10 -11z"/>
<path d="M3060 4285 c0 -2 9 -9 20 -15 16 -9 18 -8 14 5 -5 13 -34 22 -34 10z"/>
<path d="M3067 4235 c-2 -14 -1 -28 3 -30 4 -3 10 7 13 20 2 14 1 28 -3 30 -4
3 -10 -7 -13 -20z"/>
<path d="M3105 4230 c-3 -5 -1 -18 4 -27 9 -16 10 -14 11 10 0 28 -5 34 -15
17z"/>
<path d="M406 4207 c3 -10 9 -15 12 -12 3 3 0 11 -7 18 -10 9 -11 8 -5 -6z"/>
<path d="M3087 4194 c-7 -8 2 -54 12 -66 4 -4 5 10 3 32 -4 42 -5 44 -15 34z"/>
<path d="M3145 4191 c-6 -11 13 -26 22 -17 4 3 1 6 -6 6 -7 0 -9 5 -6 10 3 6
4 10 1 10 -3 0 -7 -4 -11 -9z"/>
<path d="M391 4180 c-1 -23 15 -45 23 -31 4 6 3 11 -3 11 -5 0 -12 8 -14 18
-3 12 -5 13 -6 2z"/>
<path d="M3110 4170 c0 -5 5 -10 11 -10 5 0 7 5 4 10 -3 6 -8 10 -11 10 -2 0
-4 -4 -4 -10z"/>
<path d="M3151 4108 c-1 -20 -3 -42 -4 -50 -2 -7 -2 -10 0 -5 3 4 8 5 12 3 4
-3 5 12 3 32 -5 53 -10 63 -11 20z"/>
<path d="M3147 4012 c-10 -10 -17 -21 -17 -24 0 -9 28 -3 37 7 4 4 2 5 -4 1
-16 -9 -17 6 -1 22 7 7 10 12 7 12 -3 0 -13 -8 -22 -18z"/>
<path d="M427 3883 c5 -12 3 -14 -8 -8 -12 8 -12 6 0 -8 7 -9 10 -25 7 -34 -6
-17 -5 -17 8 0 10 13 15 15 19 5 2 -7 -4 -18 -14 -23 -17 -10 -15 -13 23 -38
23 -15 44 -24 47 -21 3 3 -1 9 -9 14 -8 5 -24 16 -35 25 -17 14 -17 16 -2 11
15 -5 16 -2 7 14 -8 15 -8 20 2 21 7 0 4 4 -7 8 -22 9 -27 31 -10 43 5 4 0 8
-12 8 -17 0 -21 -4 -16 -17z"/>
<path d="M620 3521 c0 -6 4 -13 10 -16 6 -3 7 1 4 9 -7 18 -14 21 -14 7z"/>
<path d="M531 3474 c0 -11 3 -14 6 -6 3 7 2 16 -1 19 -3 4 -6 -2 -5 -13z"/>
<path d="M650 3486 c0 -2 8 -10 18 -17 15 -13 16 -12 3 4 -13 16 -21 21 -21
13z"/>
<path d="M706 3465 c4 -8 11 -15 16 -15 6 0 5 6 -2 15 -7 8 -14 15 -16 15 -2
0 -1 -7 2 -15z"/>
<path d="M807 3438 c-10 -11 -17 -22 -15 -24 3 -2 15 7 28 21 13 14 19 25 14
24 -5 0 -17 -10 -27 -21z"/>
<path d="M670 3433 c0 -4 10 -17 22 -30 l21 -23 -44 -2 c-39 -1 -40 -2 -10 -5
34 -4 137 27 114 34 -7 3 -21 -1 -33 -7 -16 -9 -24 -8 -36 4 -8 9 -12 20 -9
26 3 5 -1 10 -9 10 -9 0 -16 -3 -16 -7z"/>
<path d="M558 3413 c7 -3 16 -2 19 1 4 3 -2 6 -13 5 -11 0 -14 -3 -6 -6z"/>
<path d="M801 3396 c-19 -23 -97 -49 -129 -43 -15 3 -34 2 -41 -2 -20 -13 68
-12 110 0 39 12 87 44 78 54 -3 3 -12 -1 -18 -9z"/>
<path d="M597 3389 c7 -7 15 -10 18 -7 3 3 -2 9 -12 12 -14 6 -15 5 -6 -5z"/>
<path d="M542 3374 c10 -10 20 -16 22 -13 3 3 -5 11 -17 18 -21 13 -21 12 -5
-5z"/>
<path d="M494 3356 c11 -9 24 -16 30 -16 12 0 7 5 -24 19 -24 11 -24 11 -6 -3z"/>
<path d="M741 3157 c-3 -41 74 -217 94 -217 3 0 -6 18 -20 39 -21 35 -54 119
-68 176 -4 17 -5 17 -6 2z"/>
<path d="M1038 2673 c6 -2 18 -2 25 0 6 3 1 5 -13 5 -14 0 -19 -2 -12 -5z"/>
<path d="M871 2655 c1 -19 18 -51 18 -35 0 8 -4 22 -9 30 -5 8 -9 11 -9 5z"/>
<path d="M1125 2640 c-3 -6 1 -7 10 -4 12 5 16 2 13 -9 -2 -9 0 -16 5 -16 4
-1 7 1 7 4 0 3 0 12 0 20 0 17 -25 20 -35 5z"/>
<path d="M1195 2560 c4 -6 11 -8 16 -5 14 9 11 15 -7 15 -8 0 -12 -5 -9 -10z"/>
<path d="M1040 2530 c0 -5 4 -10 9 -10 6 0 13 5 16 10 3 6 -1 10 -9 10 -9 0
-16 -4 -16 -10z"/>
<path d="M1070 2500 c0 -5 5 -10 11 -10 5 0 7 5 4 10 -3 6 -8 10 -11 10 -2 0
-4 -4 -4 -10z"/>
<path d="M1200 2498 c0 -5 4 -7 8 -4 4 2 14 1 22 -5 10 -5 11 -9 3 -9 -7 0
-17 -9 -23 -20 -17 -31 13 -15 32 18 16 27 16 27 -13 28 -16 1 -29 -3 -29 -8z"/>
<path d="M1100 2486 c0 -8 4 -17 9 -20 5 -4 7 3 4 14 -6 23 -13 26 -13 6z"/>
<path d="M1260 2469 c0 -5 11 -9 25 -9 14 0 25 4 25 9 0 5 -11 9 -25 9 -14 0
-25 -4 -25 -9z"/>
<path d="M1140 2436 c0 -13 3 -16 8 -10 4 7 16 14 27 16 17 3 15 5 -7 10 -24
4 -28 2 -28 -16z"/>
<path d="M1108 2433 c7 -3 16 -2 19 1 4 3 -2 6 -13 5 -11 0 -14 -3 -6 -6z"/>
<path d="M732 1900 c-17 -27 -15 -32 8 -25 12 4 20 2 20 -5 0 -6 5 -8 10 -5 6
3 10 11 10 17 0 6 -3 8 -7 4 -4 -3 -12 2 -18 13 -10 20 -11 20 -23 1z"/>
<path d="M670 1871 c0 -6 4 -13 10 -16 6 -3 7 1 4 9 -7 18 -14 21 -14 7z"/>
<path d="M2321 1448 c-1 -12 6 -18 19 -18 11 0 20 5 20 11 0 6 -6 9 -14 6 -8
-3 -17 -1 -20 6 -2 7 -5 4 -5 -5z"/>
<path d="M790 1410 c0 -5 5 -10 11 -10 5 0 7 5 4 10 -3 6 -8 10 -11 10 -2 0
-4 -4 -4 -10z"/>
<path d="M2300 1398 c0 -4 16 -8 35 -8 19 0 35 2 35 4 0 2 -16 6 -35 8 -19 2
-35 0 -35 -4z"/>
<path d="M2232 1370 c7 -11 18 -22 26 -25 8 -3 6 4 -5 20 -21 29 -38 34 -21 5z"/>
<path d="M2433 1273 c9 -2 25 -2 35 0 9 3 1 5 -18 5 -19 0 -27 -2 -17 -5z"/>
<path d="M2350 1250 c-6 -4 6 -24 28 -48 21 -23 36 -45 33 -49 -3 -3 0 -3 7 1
7 4 19 3 25 -3 7 -5 31 -13 53 -16 47 -8 69 11 76 63 4 28 1 35 -21 47 -27 13
-181 17 -201 5z m150 -16 c0 -8 -5 -12 -10 -9 -6 4 -8 11 -5 16 9 14 15 11 15
-7z m-80 -14 c0 -5 -5 -10 -11 -10 -5 0 -7 5 -4 10 3 6 8 10 11 10 2 0 4 -4 4
-10z"/>
<path d="M310 1209 c0 -5 5 -7 10 -4 6 3 10 8 10 11 0 2 -4 4 -10 4 -5 0 -10
-5 -10 -11z"/>
<path d="M2955 1210 c-16 -7 -17 -9 -3 -9 9 -1 20 4 23 9 7 11 7 11 -20 0z"/>
<path d="M490 1104 c0 -8 5 -12 10 -9 6 3 10 10 10 16 0 5 -4 9 -10 9 -5 0
-10 -7 -10 -16z"/>
<path d="M760 1100 c0 -5 5 -10 10 -10 6 0 10 5 10 10 0 6 -4 10 -10 10 -5 0
-10 -4 -10 -10z"/>
<path d="M2990 1090 c0 -11 -6 -20 -14 -20 -8 0 -17 -4 -21 -10 -3 -5 7 -5 25
1 37 13 42 20 24 37 -12 11 -14 9 -14 -8z"/>
<path d="M840 1090 c0 -5 5 -10 10 -10 6 0 10 5 10 10 0 6 -4 10 -10 10 -5 0
-10 -4 -10 -10z"/>
<path d="M929 1073 c-5 -14 -12 -29 -14 -33 -2 -4 3 -7 12 -7 9 0 18 9 21 19
2 10 8 18 13 18 15 0 10 17 -6 24 -11 4 -19 -3 -26 -21z"/>
<path d="M745 1070 c3 -5 8 -10 11 -10 2 0 4 5 4 10 0 6 -5 10 -11 10 -5 0 -7
-4 -4 -10z"/>
<path d="M660 1035 c0 -8 6 -15 13 -16 6 -1 1 -5 -13 -9 -24 -8 -24 -8 -3 -9
15 -1 21 -6 17 -16 -3 -8 1 -22 11 -31 15 -15 16 -15 10 9 -4 14 -2 28 4 31 6
4 11 12 11 17 0 6 -5 7 -11 3 -8 -4 -9 0 -4 15 5 17 2 21 -14 21 -12 0 -21 -7
-21 -15z"/>
<path d="M563 1025 c0 -8 4 -12 9 -9 5 3 6 10 3 15 -9 13 -12 11 -12 -6z"/>
<path d="M892 973 c0 -10 -3 -27 -7 -38 l-8 -20 16 20 c18 22 22 55 8 55 -6 0
-9 -8 -9 -17z"/>
<path d="M850 874 c0 -8 5 -12 10 -9 6 3 10 10 10 16 0 5 -4 9 -10 9 -5 0 -10
-7 -10 -16z"/>
<path d="M887 883 c-4 -3 -7 -16 -7 -29 0 -25 27 -39 45 -24 9 8 15 7 19 -2 3
-7 3 1 -1 17 -3 17 -8 33 -10 38 -5 9 -37 9 -46 0z"/>
<path d="M955 870 c-3 -5 -1 -10 4 -10 6 0 11 5 11 10 0 6 -2 10 -4 10 -3 0
-8 -4 -11 -10z"/>
<path d="M371 794 c0 -11 3 -14 6 -6 3 7 2 16 -1 19 -3 4 -6 -2 -5 -13z"/>
<path d="M860 800 c0 -5 5 -10 11 -10 5 0 7 5 4 10 -3 6 -8 10 -11 10 -2 0 -4
-4 -4 -10z"/>
<path d="M813 758 c-6 -14 -8 -31 -3 -38 6 -10 10 -7 15 13 10 37 1 54 -12 25z"/>
<path d="M910 736 c0 -19 3 -37 8 -39 4 -3 7 13 7 34 1 21 -3 39 -7 39 -4 0
-8 -15 -8 -34z"/>
<path d="M976 755 c-3 -8 -1 -15 4 -15 6 0 10 7 10 15 0 8 -2 15 -4 15 -2 0
-6 -7 -10 -15z"/>
<path d="M2778 723 c7 -3 16 -2 19 1 4 3 -2 6 -13 5 -11 0 -14 -3 -6 -6z"/>
<path d="M2015 710 c3 -5 8 -10 11 -10 2 0 4 5 4 10 0 6 -5 10 -11 10 -5 0 -7
-4 -4 -10z"/>
<path d="M2070 709 c0 -5 9 -9 20 -9 11 0 20 2 20 4 0 2 -9 6 -20 9 -11 3 -20
1 -20 -4z"/>
<path d="M977 703 c-4 -3 -7 -11 -7 -17 0 -6 5 -5 12 2 6 6 9 14 7 17 -3 3 -9
2 -12 -2z"/>
<path d="M996 685 c-9 -26 -7 -32 5 -12 6 10 9 21 6 23 -2 3 -7 -2 -11 -11z"/>
<path d="M946 644 c-5 -14 -4 -15 9 -4 17 14 19 20 6 20 -5 0 -12 -7 -15 -16z"/>
<path d="M1250 589 c0 -5 5 -7 10 -4 6 3 10 8 10 11 0 2 -4 4 -10 4 -5 0 -10
-5 -10 -11z"/>
<path d="M3008 563 c20 -3 30 -8 26 -15 -4 -7 -2 -8 4 -4 24 14 11 26 -25 24
-38 -1 -38 -1 -5 -5z"/>
<path d="M1530 551 c0 -5 5 -13 10 -16 6 -3 10 -2 10 4 0 5 -4 13 -10 16 -5 3
-10 2 -10 -4z"/>
<path d="M3158 553 c29 -2 74 -2 100 0 26 2 2 3 -53 3 -55 0 -76 -1 -47 -3z"/>
<path d="M2058 493 c5 -26 28 -29 56 -8 21 16 16 19 -35 27 -22 4 -25 2 -21
-19z"/>
<path d="M2152 490 c0 -14 2 -19 5 -12 2 6 2 18 0 25 -3 6 -5 1 -5 -13z"/>
<path d="M866 475 c-3 -8 -1 -15 4 -15 6 0 10 7 10 15 0 8 -2 15 -4 15 -2 0
-6 -7 -10 -15z"/>
<path d="M2530 460 c0 -5 5 -10 10 -10 6 0 10 5 10 10 0 6 -4 10 -10 10 -5 0
-10 -4 -10 -10z"/>
<path d="M2111 444 c0 -11 3 -14 6 -6 3 7 2 16 -1 19 -3 4 -6 -2 -5 -13z"/>
<path d="M780 439 c0 -5 5 -7 10 -4 6 3 10 8 10 11 0 2 -4 4 -10 4 -5 0 -10
-5 -10 -11z"/>
<path d="M2050 440 c-13 -8 -12 -10 3 -10 9 0 17 5 17 10 0 12 -1 12 -20 0z"/>
<path d="M2250 390 c6 -11 15 -18 20 -15 13 8 0 35 -16 35 -12 0 -12 -4 -4
-20z"/>
<path d="M1050 314 c0 -8 5 -12 10 -9 6 3 10 10 10 16 0 5 -4 9 -10 9 -5 0
-10 -7 -10 -16z"/>
<path d="M1151 284 c0 -11 3 -14 6 -6 3 7 2 16 -1 19 -3 4 -6 -2 -5 -13z"/>
<path d="M2670 279 c0 -5 5 -7 10 -4 6 3 10 8 10 11 0 2 -4 4 -10 4 -5 0 -10
-5 -10 -11z"/>
</g>
</svg>
