<?xml version="1.0" standalone="no"?>
<!DOCTYPE svg PUBLIC "-//W3C//DTD SVG 20010904//EN"
 "http://www.w3.org/TR/2001/REC-SVG-20010904/DTD/svg10.dtd">
<svg version="1.0" xmlns="http://www.w3.org/2000/svg"
 width="200.000000pt" height="200.000000pt" viewBox="0 0 200.000000 200.000000"
 preserveAspectRatio="xMidYMid meet">

<g transform="translate(0.000000,200.000000) scale(0.100000,-0.100000)"
fill="#000000" stroke="none">
<path d="M807 1964 c-200 -43 -353 -128 -502 -278 -137 -138 -215 -277 -262
-462 -26 -105 -24 -362 5 -468 27 -98 98 -249 156 -330 140 -196 368 -341 616
-392 112 -22 323 -15 435 15 264 71 502 267 625 516 73 148 91 222 97 397 l5
146 -25 26 c-28 28 -53 32 -90 15 -37 -17 -47 -50 -47 -157 0 -272 -132 -519
-360 -671 -383 -256 -890 -155 -1144 228 -250 376 -144 890 236 1138 190 124
417 163 644 111 80 -18 98 -19 118 -8 51 27 57 106 11 136 -72 47 -372 69
-518 38z"/>
<path d="M955 1414 c-11 -2 -45 -9 -75 -15 -59 -12 -164 -61 -239 -111 -64
-43 -234 -217 -250 -256 -20 -48 -1 -82 109 -193 172 -174 328 -253 500 -253
114 0 235 42 359 126 64 43 234 217 250 256 20 48 1 82 -109 193 -103 104
-151 140 -256 192 -93 46 -228 75 -289 61z m173 -184 c71 -25 174 -96 247
-169 l59 -61 -59 -61 c-164 -166 -341 -227 -498 -171 -76 27 -178 97 -252 171
l-59 61 59 61 c65 66 167 138 230 163 95 38 174 40 273 6z"/>
<path d="M972 1128 c-7 -7 -12 -29 -12 -49 0 -37 -1 -38 -41 -41 -80 -6 -80
-70 -1 -76 40 -3 41 -4 44 -44 6 -79 70 -79 76 0 3 40 4 41 44 44 79 6 79 70
-1 76 -40 3 -41 4 -41 41 0 39 -14 61 -40 61 -9 0 -21 -5 -28 -12z"/>
</g>
</svg>
