<?xml version="1.0" standalone="no"?>
<!DOCTYPE svg PUBLIC "-//W3C//DTD SVG 20010904//EN"
 "http://www.w3.org/TR/2001/REC-SVG-20010904/DTD/svg10.dtd">
<svg version="1.0" xmlns="http://www.w3.org/2000/svg"
 width="900.000000pt" height="750.000000pt" viewBox="0 0 900.000000 750.000000"
 preserveAspectRatio="xMidYMid meet">

<g transform="translate(0.000000,750.000000) scale(0.100000,-0.100000)"
fill="#000000" stroke="none">
<path d="M4260 7479 c-925 -59 -1798 -463 -2445 -1130 -605 -624 -968 -1421
-1045 -2293 -14 -156 -11 -506 5 -671 83 -838 438 -1613 1016 -2219 628 -658
1454 -1059 2362 -1146 150 -15 536 -15 687 -1 729 69 1414 346 1995 806 707
560 1199 1394 1350 2288 38 228 48 347 49 592 1 264 -6 383 -35 580 -142 981
-660 1849 -1469 2461 -296 224 -703 436 -1063 553 -271 88 -590 153 -862 175
-131 11 -410 13 -545 5z m582 -154 c181 -17 538 -80 538 -95 0 -3 -29 -21 -65
-39 -136 -73 -214 -158 -241 -261 -20 -78 -13 -145 22 -218 31 -63 52 -76 107
-67 92 16 180 84 224 173 26 52 28 66 26 162 -1 71 -7 127 -21 173 -13 44 -16
67 -8 67 22 0 233 -68 356 -115 69 -26 186 -77 260 -113 l135 -65 -57 -12
c-91 -19 -145 -44 -177 -81 -35 -39 -55 -104 -47 -152 9 -56 22 -65 92 -60
119 7 180 80 191 225 3 40 8 73 11 73 24 0 393 -240 521 -338 l23 -19 -63 -13
c-91 -18 -201 -72 -239 -118 -56 -67 -78 -212 -39 -258 7 -8 10 -16 8 -18 -19
-16 -144 -95 -146 -92 -2 2 4 19 12 39 8 20 15 65 15 99 0 123 -71 216 -222
289 -45 21 -87 39 -94 39 -21 0 -39 -100 -39 -210 0 -88 4 -112 22 -146 28
-52 86 -108 132 -127 20 -8 47 -19 61 -25 24 -9 22 -11 -43 -41 -71 -32 -287
-103 -287 -94 0 3 11 18 25 34 64 77 56 194 -21 327 l-27 46 -45 -49 c-74 -82
-102 -140 -102 -213 0 -64 21 -124 54 -151 18 -15 21 -31 5 -31 -26 0 -166
-66 -245 -116 -84 -53 -85 -53 -80 -26 2 15 8 49 11 76 17 126 108 338 187
436 25 30 80 107 123 170 43 63 89 125 101 136 48 46 56 163 15 242 -26 52
-70 88 -156 128 -118 55 -110 58 -124 -43 -12 -93 -5 -167 23 -220 29 -56 100
-106 172 -121 l36 -7 -92 -105 c-51 -58 -96 -106 -99 -108 -4 -1 -7 15 -8 37
-3 80 -52 154 -125 192 -34 17 -159 49 -194 49 -18 0 -18 -48 0 -115 37 -140
118 -215 231 -215 25 0 45 -2 45 -5 0 -2 -18 -28 -40 -57 -22 -29 -57 -88 -78
-131 l-39 -78 -15 39 c-8 22 -32 52 -53 68 -36 27 -44 29 -131 29 -52 -1 -96
-4 -99 -7 -12 -12 44 -105 84 -141 54 -48 114 -59 185 -31 16 6 18 4 12 -12
-17 -42 -55 -183 -71 -264 -13 -66 -24 -93 -50 -125 -48 -58 -153 -236 -205
-348 -25 -53 -48 -96 -51 -97 -4 0 -9 20 -12 45 -3 30 -33 103 -86 208 -45 89
-81 168 -81 175 0 8 9 6 28 -8 15 -11 53 -25 84 -32 119 -25 228 44 302 190
20 39 32 73 28 75 -24 14 -128 31 -192 31 -92 -1 -139 -22 -200 -91 -23 -26
-39 -39 -35 -28 4 11 16 47 27 80 30 90 102 263 146 352 22 43 52 112 67 153
26 73 95 344 95 372 -1 7 -18 -36 -39 -97 -71 -205 -158 -396 -137 -298 7 29
-13 143 -34 197 -9 26 -8 32 15 56 52 55 64 152 27 224 -15 31 -110 136 -122
136 -4 0 -22 -29 -40 -64 -54 -108 -53 -199 3 -263 17 -20 46 -42 63 -49 29
-12 32 -18 38 -75 9 -94 7 -209 -4 -209 -5 0 -10 6 -10 13 0 20 -60 74 -101
91 -20 8 -59 18 -87 22 l-52 7 6 -49 c15 -120 42 -171 106 -203 24 -11 59 -21
77 -21 40 0 42 7 -54 -199 -129 -276 -143 -367 -79 -521 69 -168 86 -222 87
-295 2 -57 -3 -81 -25 -128 -48 -103 -220 -257 -287 -257 -43 0 -89 37 -135
107 -81 127 -92 159 -50 143 14 -6 51 -10 82 -10 99 0 190 58 238 152 22 42
64 167 64 188 0 38 -203 32 -293 -8 -75 -33 -146 -126 -147 -189 0 -71 -42 40
-70 186 -22 115 -6 173 82 308 l40 62 35 -26 c40 -31 121 -42 176 -24 36 12
126 91 146 129 11 21 8 24 -46 50 -46 21 -73 27 -130 27 -40 0 -73 1 -73 1 0
1 19 33 42 70 57 94 104 201 134 303 30 99 35 245 21 550 -8 166 -7 173 10
166 32 -15 113 -17 144 -5 63 26 151 169 118 192 -8 5 -52 7 -99 6 -68 -2 -91
-7 -116 -25 -63 -45 -83 -127 -84 -350 0 -35 -4 -63 -8 -63 -4 0 -14 17 -21
37 -8 20 -33 58 -58 84 -83 89 -197 115 -370 84 -54 -9 -99 -19 -101 -20 -8
-7 52 -133 93 -195 78 -117 170 -167 294 -158 40 3 83 14 108 27 23 11 44 21
45 21 2 0 -2 -51 -9 -112 -20 -190 -43 -268 -57 -195 -3 19 -19 54 -35 79 -41
65 -110 97 -226 105 l-88 6 7 -39 c34 -194 111 -279 252 -279 l61 0 -30 -50
c-45 -77 -133 -201 -211 -297 l-71 -88 -7 120 c-11 191 -35 283 -119 452 -60
119 -113 207 -190 315 -33 44 -59 84 -59 87 0 3 11 6 24 6 38 0 117 60 151
114 27 44 30 58 30 130 0 88 -36 226 -58 226 -18 0 -116 -66 -160 -108 -60
-57 -81 -106 -82 -184 0 -38 -1 -68 -2 -68 -4 0 -87 91 -100 110 -10 14 -9 25
7 56 25 48 26 126 1 179 -23 51 -79 101 -150 133 -52 24 -53 26 -30 34 147 56
527 135 734 153 l80 7 1 -95 c3 -227 97 -353 272 -365 75 -5 94 7 112 73 28
98 -17 220 -103 286 -48 36 -182 89 -224 89 -13 0 -23 5 -23 10 0 16 404 12
582 -5z m-1493 -212 c-5 -21 -9 -67 -9 -103 0 -114 60 -195 165 -222 28 -6 55
-16 62 -21 11 -8 203 -289 212 -310 2 -5 -12 -1 -30 9 -71 37 -168 16 -263
-59 l-38 -31 33 -28 c48 -41 148 -88 187 -88 45 0 101 25 138 61 l32 31 25
-44 c41 -69 119 -239 114 -245 -3 -3 -18 4 -34 14 -101 71 -232 55 -391 -47
l-74 -47 69 -62 c156 -141 298 -167 431 -77 l50 33 8 -136 c4 -83 2 -214 -5
-336 -8 -145 -9 -221 -1 -275 12 -82 42 -219 59 -262 6 -16 7 -28 3 -28 -35 1
-351 192 -352 212 0 3 16 12 36 18 49 16 113 76 135 125 31 67 18 221 -25 303
l-12 23 -62 -41 c-139 -93 -200 -211 -162 -317 l10 -28 -21 25 c-56 66 -106
212 -169 490 -87 388 -141 546 -230 674 l-31 46 28 0 c70 1 158 71 183 146 15
44 8 176 -12 223 l-13 31 -76 -44 c-43 -25 -90 -62 -107 -82 -49 -60 -64 -147
-36 -219 5 -13 -11 -3 -42 26 -27 25 -57 50 -67 55 -15 9 -16 15 -7 38 26 70
-2 178 -63 240 -44 43 -154 96 -202 96 -14 0 -25 4 -25 10 0 26 513 257 576
260 9 0 9 -11 3 -37z m-636 -326 c13 -146 56 -225 149 -271 55 -28 160 -37
173 -15 5 7 16 2 31 -12 24 -22 124 -162 124 -173 0 -3 -16 6 -36 19 -64 43
-143 36 -238 -23 l-38 -24 28 -30 c53 -56 113 -88 167 -88 54 0 113 23 130 52
7 10 15 18 18 18 10 0 43 -82 78 -192 27 -87 84 -358 77 -366 -2 -1 -22 23
-45 53 -93 123 -236 245 -381 323 -72 39 -270 112 -304 112 -20 0 -21 16 -2
23 24 9 56 90 56 142 0 65 -27 118 -95 185 l-56 55 -17 -23 c-10 -12 -29 -50
-42 -84 -42 -105 -28 -193 38 -256 l27 -25 -50 6 c-42 5 -38 3 25 -13 85 -22
220 -69 235 -81 5 -5 -9 -9 -33 -9 -78 0 -147 -43 -197 -120 -24 -38 -78 -180
-71 -187 2 -2 35 -7 74 -10 98 -8 193 12 245 51 51 39 92 115 92 173 0 24 4
43 8 43 11 0 140 -90 185 -129 l33 -28 -32 -7 c-93 -18 -139 -87 -139 -209 0
-91 3 -92 95 -48 91 42 116 78 127 181 3 22 9 17 55 -45 64 -85 134 -219 203
-385 69 -165 89 -203 155 -296 79 -110 129 -160 290 -282 236 -181 450 -404
516 -537 51 -104 39 -209 -22 -190 -13 4 -60 44 -104 89 -89 91 -169 146 -331
231 -177 93 -266 153 -377 255 l-58 53 39 17 c83 37 108 115 73 230 l-22 71
-46 -33 c-68 -49 -98 -100 -97 -165 0 -29 -1 -53 -2 -53 -1 0 -36 49 -77 108
-41 59 -109 152 -151 205 -42 54 -76 100 -76 102 0 3 7 5 15 5 29 0 94 40 118
72 48 63 57 162 25 271 l-11 37 -66 -36 c-116 -63 -159 -119 -162 -211 l-2
-51 -86 73 c-180 151 -280 200 -585 290 l-58 17 36 30 c86 70 92 163 19 280
-29 47 -40 43 -97 -33 -60 -79 -68 -130 -34 -199 14 -28 23 -50 20 -50 -3 0
-25 11 -49 25 -39 23 -42 29 -36 53 16 55 8 136 -18 182 -37 69 -100 105 -253
147 -18 5 -18 -1 -14 -103 4 -85 9 -118 26 -150 37 -72 104 -114 190 -117 25
-2 56 -15 97 -44 68 -46 97 -60 275 -132 111 -46 269 -135 258 -147 -3 -2 -49
7 -104 20 -155 38 -255 49 -390 43 l-122 -5 15 36 c18 43 7 90 -32 137 l-25
30 -20 -25 c-26 -32 -43 -95 -34 -123 3 -12 15 -31 25 -43 l19 -21 -81 -17
c-44 -10 -83 -15 -86 -13 -2 3 1 15 7 27 16 30 14 120 -3 161 -26 61 -101 120
-197 154 -52 19 -55 16 -64 -69 -13 -132 28 -228 115 -268 50 -24 62 -38 32
-38 -10 -1 -31 -7 -48 -15 -21 -10 -23 -13 -7 -9 60 15 222 41 221 35 0 -3
-19 -19 -42 -36 -49 -36 -88 -108 -94 -173 -5 -53 15 -153 46 -225 l21 -48 41
23 c58 32 151 125 174 173 38 80 30 186 -19 258 l-24 35 44 4 c72 5 263 -9
349 -27 233 -48 423 -149 561 -298 68 -73 228 -286 221 -293 -3 -3 -22 3 -44
14 -76 39 -328 94 -495 107 l-76 7 19 41 c20 46 25 111 9 151 -13 34 -75 102
-126 137 -24 16 -45 29 -48 29 -12 0 -46 -135 -46 -181 0 -64 18 -107 64 -146
20 -18 36 -34 36 -36 0 -2 -21 -4 -47 -5 -27 -1 -65 -4 -86 -8 -32 -5 -42 -1
-72 25 -93 81 -242 62 -338 -43 -37 -40 -87 -112 -87 -125 0 -13 102 -50 173
-63 70 -12 134 1 190 39 43 30 87 97 87 133 l0 23 143 -7 c78 -4 160 -10 182
-15 l40 -7 -35 -16 c-69 -30 -100 -84 -100 -171 0 -50 16 -127 26 -127 15 0
88 44 120 72 62 54 82 138 49 202 -9 16 -14 30 -12 32 2 2 46 -8 98 -22 125
-34 273 -108 388 -194 52 -39 128 -87 168 -107 40 -20 73 -40 73 -45 0 -5 -5
-6 -10 -3 -21 13 -81 -18 -120 -62 -22 -25 -40 -52 -40 -59 0 -17 61 -34 122
-34 51 0 102 33 119 77 5 12 12 23 16 23 34 0 301 -209 422 -331 96 -95 132
-148 193 -284 40 -89 42 -107 20 -135 -27 -33 -39 -26 -207 121 -311 272 -547
416 -852 518 -210 70 -350 94 -555 95 -98 1 -178 2 -178 2 0 1 7 18 15 37 31
74 10 137 -64 193 -41 32 -46 34 -58 18 -7 -9 -17 -41 -23 -70 -15 -70 -1
-113 48 -154 20 -16 33 -30 30 -30 -4 0 -58 -7 -120 -16 -169 -24 -252 -21
-403 15 -194 46 -336 93 -330 110 12 31 -18 97 -65 142 -76 75 -153 84 -302
38 l-68 -21 25 -42 c40 -68 116 -147 159 -167 57 -26 132 -24 188 4 l46 23 48
-28 c74 -42 213 -94 321 -119 l97 -22 -39 -18 c-91 -39 -131 -114 -121 -223 7
-87 15 -116 30 -116 16 0 104 48 143 77 64 49 94 170 58 233 -8 14 -14 27 -15
30 0 3 43 4 95 2 52 -2 159 3 238 11 186 21 257 25 257 16 0 -4 -15 -12 -32
-18 -47 -16 -106 -74 -130 -129 -17 -36 -22 -67 -22 -132 0 -91 19 -190 37
-190 30 0 166 80 213 125 41 41 56 64 69 110 20 68 14 142 -15 193 -23 39 -18
40 76 11 277 -84 745 -352 991 -567 114 -100 163 -163 163 -211 0 -75 -43 -80
-168 -17 -166 84 -634 256 -695 256 -19 0 -23 15 -6 26 21 12 49 89 49 133 0
64 -32 122 -103 186 -33 30 -64 55 -67 55 -15 0 -62 -123 -67 -174 -7 -64 9
-116 47 -159 l28 -32 -267 -2 c-146 -1 -323 -8 -393 -15 -71 -8 -128 -12 -128
-10 0 2 15 18 34 35 49 47 60 98 41 188 -8 39 -16 74 -19 76 -15 16 -128 -73
-153 -120 -20 -41 -20 -120 2 -153 9 -14 15 -27 13 -29 -2 -2 -62 -7 -133 -10
-100 -6 -157 -3 -245 9 -115 17 -138 24 -110 34 8 3 31 22 51 42 43 45 64 112
56 175 -7 47 -51 142 -87 185 l-20 25 -46 -49 c-64 -69 -95 -136 -95 -201 0
-56 18 -110 46 -138 30 -31 9 -30 -67 3 -92 41 -98 46 -98 84 -1 66 -62 155
-134 194 -35 18 -178 23 -255 8 l-43 -8 7 53 c38 311 119 629 230 910 l38 97
44 -19 c121 -52 249 -62 325 -25 90 44 163 158 135 214 -6 14 -34 37 -62 51
-66 35 -179 36 -240 4 -36 -19 -101 -79 -155 -143 -35 -41 92 205 180 350 140
231 300 440 475 621 l84 87 47 -60 c65 -83 139 -131 212 -136 76 -5 136 12
180 52 35 33 36 34 24 74 -14 45 -74 105 -131 130 -51 22 -162 19 -234 -5 -32
-11 -56 -17 -55 -13 5 12 224 198 313 266 44 34 134 96 200 139 66 43 129 84
140 91 11 7 23 13 26 13 3 1 9 -32 12 -72z m4146 -331 c183 -161 365 -356 513
-552 110 -145 285 -420 275 -431 -3 -2 -35 1 -72 8 -97 17 -205 6 -270 -26
-93 -45 -158 -140 -159 -233 l-1 -53 -79 -24 c-44 -14 -81 -23 -83 -21 -2 2
10 18 27 36 29 31 60 111 60 156 0 37 -38 146 -71 204 l-32 55 -52 -57 c-80
-88 -109 -150 -109 -228 0 -70 17 -115 61 -161 l24 -26 -23 -6 c-57 -14 -188
-18 -248 -8 -76 13 -340 84 -340 91 0 3 15 14 34 24 18 10 55 38 81 62 53 48
60 52 51 28 -21 -55 98 -105 179 -74 26 10 125 97 125 110 0 4 -26 19 -59 34
-61 27 -128 34 -163 15 -21 -11 -41 -3 -22 9 15 9 130 171 179 250 34 56 41
62 71 62 100 0 217 89 245 187 16 53 18 182 6 256 -10 56 -7 57 -136 -5 -108
-51 -173 -115 -195 -189 -26 -87 -17 -176 22 -221 17 -21 20 -16 -82 -131 -38
-43 -71 -75 -74 -73 -3 3 1 13 9 22 8 10 13 41 13 83 0 80 -25 134 -83 180
-52 41 -183 102 -195 91 -14 -14 -20 -200 -7 -246 23 -85 141 -174 213 -160
15 3 28 4 28 2 0 -17 -188 -179 -239 -205 -32 -18 -151 -60 -151 -55 0 3 9 17
21 33 32 43 35 98 9 159 -35 80 -42 82 -89 16 -51 -71 -56 -129 -17 -187 l24
-35 -66 -11 c-37 -5 -89 -13 -116 -16 -27 -4 -55 -9 -63 -12 -8 -3 1 15 20 40
88 116 71 247 -51 378 -80 87 -86 89 -118 33 -43 -73 -74 -169 -74 -227 1 -87
55 -178 127 -212 l36 -18 -45 -17 c-25 -9 -70 -33 -100 -53 -30 -21 -57 -37
-59 -37 -2 0 -4 27 -4 59 0 51 -4 64 -31 98 -33 41 -116 87 -176 98 l-38 7 0
-64 c0 -133 47 -212 142 -239 24 -7 44 -13 46 -14 1 -1 -12 -17 -29 -36 -17
-19 -50 -61 -72 -94 -50 -75 -207 -269 -284 -352 -32 -35 -94 -92 -138 -128
-191 -158 -301 -151 -290 17 4 69 34 114 167 248 166 168 207 228 288 423 74
180 146 328 190 392 40 58 169 176 255 233 62 42 213 111 241 112 6 0 11 -13
12 -29 2 -61 55 -126 116 -142 42 -11 151 -4 176 11 13 8 11 18 -13 63 -31 59
-66 97 -112 121 l-30 15 35 13 c100 34 227 117 327 211 57 55 65 59 96 53 85
-16 207 42 252 118 29 50 55 153 55 224 0 28 3 52 6 52 4 0 50 -38 103 -84z
m860 -1109 c120 -255 198 -461 256 -680 l34 -128 -37 8 c-20 4 -93 8 -162 8
-113 0 -129 -2 -174 -25 -84 -43 -154 -139 -164 -225 -4 -39 -7 -42 -60 -63
-31 -12 -57 -20 -59 -19 -1 2 6 21 18 43 24 47 20 93 -15 163 -37 72 -47 76
-83 38 -85 -89 -95 -186 -27 -258 l25 -26 -88 -51 c-48 -28 -159 -98 -245
-155 -87 -58 -158 -102 -158 -99 0 4 7 15 15 25 39 52 24 158 -38 255 l-33 53
-46 -49 c-64 -68 -91 -125 -90 -189 0 -60 34 -132 70 -148 12 -5 22 -12 22
-16 0 -10 -164 -97 -230 -122 -67 -25 -161 -42 -285 -51 -57 -4 -66 -3 -51 7
125 79 149 200 72 362 l-36 77 -51 -43 c-130 -109 -167 -225 -109 -339 10 -20
26 -42 34 -49 9 -8 16 -16 16 -20 0 -8 -4 -8 -356 -10 -421 -2 -541 14 -564
75 -21 54 6 120 78 191 77 76 177 130 276 148 l39 8 -16 -24 c-26 -36 -22
-134 6 -184 25 -45 104 -97 177 -119 l45 -13 8 36 c12 51 0 157 -23 202 -21
40 -82 89 -112 89 -9 0 -20 5 -23 10 -3 6 0 10 8 10 27 0 311 31 465 51 283
36 450 82 658 184 178 87 296 168 474 325 l75 67 63 -5 c109 -8 199 43 248
141 26 50 54 159 54 211 l0 29 -69 -7 c-155 -14 -250 -65 -297 -159 -24 -47
-32 -114 -22 -180 2 -14 -23 -37 -89 -83 -51 -36 -93 -63 -93 -61 0 1 9 20 20
42 27 53 26 132 -2 192 -12 26 -47 73 -78 106 l-55 59 -38 -64 c-70 -118 -81
-202 -37 -288 20 -40 76 -90 101 -90 24 -1 -20 -29 -151 -95 -150 -75 -303
-129 -425 -149 -102 -17 -195 -25 -195 -18 0 2 12 19 28 36 15 17 59 89 97
159 39 70 73 127 78 127 4 0 7 -9 7 -19 0 -29 46 -78 87 -92 46 -15 120 -6
173 21 33 17 39 24 31 38 -20 37 -100 101 -141 112 -40 11 -47 10 -115 -15
-26 -10 30 50 107 115 53 45 59 47 101 43 79 -9 126 34 152 140 7 26 6 27 -36
27 -88 -1 -159 -56 -159 -124 0 -19 -12 -31 -57 -58 -77 -44 -75 -44 -62 -11
29 76 -20 162 -122 213 l-57 29 -7 -37 c-11 -60 -7 -150 10 -181 18 -37 61
-71 97 -78 16 -3 28 -6 28 -7 0 0 -32 -34 -70 -75 -61 -64 -70 -70 -70 -49 0
67 -49 147 -108 177 -51 26 -138 43 -193 39 l-47 -3 22 -86 c28 -113 60 -160
131 -194 45 -22 65 -27 105 -23 28 3 50 3 50 2 0 -9 -77 -113 -109 -147 -20
-21 -61 -51 -91 -67 -49 -24 -67 -28 -160 -29 -58 -1 -124 -4 -147 -7 -24 -2
-43 -2 -43 1 0 2 17 13 38 24 82 42 141 140 150 246 5 69 -20 182 -62 278
l-26 57 -27 -17 c-64 -39 -165 -129 -199 -175 -48 -65 -63 -109 -64 -189 0
-81 21 -145 65 -196 l33 -39 -90 -13 c-185 -26 -398 -100 -538 -187 -69 -42
-100 -47 -100 -17 0 16 102 120 286 290 86 79 139 138 184 205 263 387 395
507 632 579 83 26 203 22 318 -10 231 -64 531 -50 745 35 39 15 78 33 88 39
14 10 27 7 68 -13 69 -34 171 -35 247 -2 70 30 139 108 188 209 22 45 41 81
44 81 3 -1 20 -33 39 -73z m329 -1019 c35 -228 44 -349 44 -578 1 -322 -28
-564 -102 -865 -44 -177 -123 -421 -146 -446 -24 -27 -194 -107 -274 -129
-109 -30 -268 -36 -415 -16 -234 33 -540 112 -880 228 l-210 72 -125 0 c-157
1 -209 -14 -334 -100 -148 -102 -200 -126 -272 -127 -87 0 -158 35 -240 117
-110 110 -146 217 -125 369 15 109 47 166 155 273 159 159 280 202 831 293 99
17 212 37 250 46 266 60 480 179 705 390 36 34 84 76 106 93 l41 32 13 -44
c27 -96 108 -155 214 -156 49 0 173 24 185 36 9 9 -83 146 -119 177 -45 39
-116 63 -155 53 -14 -4 -25 -3 -25 1 1 7 153 104 257 164 l42 24 23 -21 c57
-50 156 -66 254 -39 91 25 163 92 224 209 25 47 48 86 51 86 3 0 15 -64 27
-142z m-7101 -326 c30 -65 86 -128 137 -155 59 -31 176 -31 226 0 l35 22 42
-27 c23 -15 42 -30 43 -33 0 -4 -19 -9 -41 -12 -91 -12 -145 -93 -154 -228
l-4 -71 42 7 c66 11 161 59 185 92 32 46 49 117 35 153 -13 35 -10 36 49 10
140 -62 331 -89 631 -89 389 -1 670 -43 1013 -152 389 -124 762 -389 879 -624
41 -82 52 -159 36 -253 -29 -175 -135 -285 -317 -328 -90 -21 -235 -13 -368
20 -134 34 -180 42 -411 71 -336 42 -423 61 -823 185 -314 96 -376 111 -472
111 -119 0 -296 -59 -504 -168 -90 -48 -78 -57 -129 102 -103 319 -158 634
-173 982 -7 159 2 433 15 433 3 -1 16 -22 28 -48z m873 -1428 c199 -44 890
-241 908 -259 7 -6 -38 -22 -148 -52 -146 -40 -274 -37 -505 10 -286 58 -370
69 -411 52 -53 -22 -133 -78 -244 -171 -56 -47 -103 -84 -105 -82 -11 13 -155
322 -155 334 0 7 192 116 256 145 148 66 195 69 404 23z m4527 -237 c142 -49
207 -102 302 -242 43 -65 87 -116 123 -145 31 -25 53 -46 49 -48 -13 -4 -219
64 -371 123 -293 114 -474 161 -652 172 -60 3 -108 10 -108 14 0 11 95 81 140
105 92 46 138 54 295 50 129 -3 160 -7 222 -29z m1463 6 c0 -5 -22 -54 -49
-109 -50 -105 -88 -149 -190 -222 -68 -50 -190 -109 -269 -131 l-69 -19 -100
32 c-151 49 -194 77 -260 165 -31 42 -75 100 -97 129 -22 30 -63 74 -90 98
l-51 45 70 -26 c93 -35 272 -81 370 -94 116 -17 279 -14 370 4 95 20 248 73
307 108 47 27 58 31 58 20z m-5878 -164 c403 -94 535 -99 908 -38 104 18 151
20 280 15 155 -5 319 -26 375 -48 34 -13 105 -76 105 -93 0 -38 -118 -88 -355
-150 -192 -51 -313 -68 -425 -61 -182 10 -411 66 -655 161 -65 25 -149 51
-187 57 -132 23 -257 -25 -410 -157 -87 -75 -87 -75 -102 -53 -8 13 -35 57
-60 98 l-46 75 83 80 c134 129 202 167 281 158 23 -3 116 -22 208 -44z m4293
-266 c61 -37 126 -73 145 -80 19 -6 82 -12 139 -13 93 0 109 -3 147 -25 46
-27 88 -97 100 -165 3 -19 11 -45 17 -58 11 -24 78 -58 167 -87 116 -37 230
-107 230 -141 0 -15 -309 -316 -320 -312 -4 2 -44 48 -88 103 -86 108 -215
237 -283 282 -23 15 -101 60 -173 98 l-131 71 -52 103 c-53 105 -83 189 -83
234 0 80 42 77 185 -10z m-4249 6 c12 -4 46 -29 75 -55 87 -77 168 -133 254
-174 89 -44 225 -80 298 -80 26 0 47 -3 47 -8 0 -13 -126 -128 -181 -166 -75
-51 -163 -76 -289 -82 -140 -7 -151 -9 -228 -45 l-66 -32 -59 64 c-72 79 -185
219 -256 318 l-54 74 34 29 c80 66 179 127 239 146 99 32 126 33 186 11z
m3789 -24 c59 -28 136 -100 176 -164 19 -29 39 -92 64 -197 44 -182 52 -196
194 -318 98 -85 140 -131 156 -171 4 -11 11 -85 16 -165 4 -80 11 -156 14
-170 5 -22 -1 -29 -59 -63 -36 -20 -70 -37 -76 -37 -19 0 -173 81 -255 134
-173 113 -234 203 -245 361 -9 130 -36 177 -244 421 -64 76 -106 153 -106 198
0 49 38 114 87 148 93 63 181 71 278 23z m1819 3 c-68 -114 -244 -360 -338
-473 l-25 -29 -28 25 c-49 45 -89 68 -174 101 -108 41 -133 65 -127 123 3 24
15 57 28 74 20 29 25 31 58 24 62 -12 204 -6 247 10 22 9 110 47 195 86 164
74 176 78 164 59z m-3574 -151 c0 -117 -28 -183 -93 -222 -55 -32 -97 -40
-344 -70 -359 -44 -395 -59 -608 -251 -230 -207 -310 -267 -478 -358 l-67 -37
-88 67 c-140 109 -382 323 -382 338 0 2 22 13 49 25 42 18 70 21 171 21 196 0
349 41 498 134 45 28 117 72 158 98 118 73 159 85 382 108 247 25 327 41 467
95 60 23 143 55 183 70 41 15 86 38 100 51 47 41 52 33 52 -69z m427 41 c59
-48 83 -250 45 -375 -25 -81 -66 -146 -190 -302 -169 -212 -186 -266 -187
-581 0 -136 5 -240 13 -284 7 -37 11 -71 7 -74 -5 -5 -246 25 -270 34 -9 4 -8
20 3 67 22 89 21 286 -1 359 -9 31 -47 111 -83 177 -36 66 -68 137 -71 158 -6
43 34 187 67 240 10 18 45 49 77 69 157 101 198 132 261 193 77 75 119 133
167 229 44 90 75 116 125 106 14 -3 30 -10 37 -16z m664 -257 c72 -27 123 -80
143 -150 33 -113 16 -171 -99 -335 -105 -151 -123 -209 -89 -282 9 -18 60 -84
114 -145 132 -150 152 -189 154 -292 l1 -80 -30 -9 c-44 -12 -290 -56 -358
-64 l-58 -6 6 128 c9 178 -1 229 -80 394 -80 169 -105 260 -105 390 0 202 90
419 195 467 39 18 134 10 206 -16z m1288 -131 c123 -79 271 -257 335 -402 l25
-58 -77 -58 c-42 -32 -105 -77 -139 -100 l-62 -42 -11 34 c-6 20 -10 92 -8
177 1 102 -2 151 -11 168 -7 13 -50 63 -96 112 -81 87 -115 139 -115 176 0 28
8 33 55 33 32 0 57 -10 104 -40z m-2846 -115 c14 -6 -6 -21 -86 -65 -202 -110
-243 -150 -408 -400 -67 -102 -137 -206 -156 -232 l-34 -47 -97 55 c-128 73
-272 164 -272 172 1 4 40 25 88 47 137 63 199 109 327 240 143 146 226 199
370 234 43 11 238 8 268 -4z m1976 -92 c16 -24 46 -95 65 -157 50 -158 115
-285 180 -349 31 -31 100 -79 170 -119 l118 -67 -68 -31 c-152 -70 -517 -200
-559 -200 -6 0 -11 29 -12 73 0 40 -7 88 -15 107 -8 19 -55 85 -103 145 -132
164 -145 188 -145 257 0 89 24 126 134 208 100 74 122 105 130 181 3 24 5 45
5 47 3 11 76 -58 100 -95z m-1011 -125 c3 -57 28 -202 48 -269 9 -29 43 -106
75 -169 62 -123 99 -224 124 -345 25 -121 24 -122 -39 -130 -92 -12 -483 -2
-497 12 -19 19 -19 477 0 558 22 99 65 167 160 254 48 44 93 91 101 105 19 37
26 32 28 -16z m-1010 -52 c45 -23 61 -48 108 -172 25 -68 58 -134 75 -154 47
-56 77 -128 88 -215 10 -83 0 -220 -18 -238 -28 -28 -502 123 -738 234 l-72
34 73 122 c41 66 89 143 107 170 116 169 284 267 377 219z"/>
<path d="M1581 4795 c-43 -87 -57 -158 -42 -213 19 -69 96 -142 149 -142 44 0
92 88 92 170 0 74 -47 155 -129 219 l-38 31 -32 -65z"/>
</g>
</svg>
