<svg viewBox="0 0 26 26" xml:space="preserve" xmlns="http://www.w3.org/2000/svg"><path d="M24.25 1H1.75a.75.75 0 0 0 0 1.5h4.875v21.75a.75.75 0 0 0 1.5 0v-6.07l10.085 6.695a.751.751 0 0 0 .83-1.25L8.727 16.778l10.315-6.905a.74.74 0 0 0 .194-.195c.004-.005.01-.007.013-.012l.001-.002a.749.749 0 0 0 .11-.271c.01-.046 0-.091.001-.137 0-.05.01-.1 0-.15a.75.75 0 0 0-.113-.272v-.001c-.023-.034-.056-.054-.083-.083-.04-.043-.073-.09-.124-.124l-.003-.002-.003-.002L9.852 2.5H24.25a.75.75 0 0 0 0-1.5zM8.125 3.151l9.15 6.1-9.15 6.126V3.151z" fill="#ffffff" class="fill-1d1d1b"></path></svg>