<?xml version="1.0" standalone="no"?>
<!DOCTYPE svg PUBLIC "-//W3C//DTD SVG 20010904//EN"
 "http://www.w3.org/TR/2001/REC-SVG-20010904/DTD/svg10.dtd">
<svg version="1.0" xmlns="http://www.w3.org/2000/svg"
 width="360.000000pt" height="360.000000pt" viewBox="0 0 360.000000 360.000000"
 preserveAspectRatio="xMidYMid meet">

<g transform="translate(0.000000,360.000000) scale(0.100000,-0.100000)"
fill="#000000" stroke="none">
<path d="M1150 1800 l0 -1620 120 0 120 0 0 723 0 722 497 300 c273 165 511
309 529 320 l33 20 -58 98 c-31 53 -60 100 -64 103 -3 3 -211 -118 -462 -270
-250 -152 -460 -276 -465 -276 -6 0 -10 105 -10 289 l0 289 443 268 c243 147
450 273 459 279 15 10 11 21 -41 108 -32 53 -60 100 -64 103 -3 3 -181 -100
-395 -230 -214 -130 -392 -236 -396 -236 -3 0 -6 142 -6 315 l0 315 -120 0
-120 0 0 -1620z"/>
</g>
</svg>
