<?xml version="1.0" standalone="no"?>
<!DOCTYPE svg PUBLIC "-//W3C//DTD SVG 20010904//EN"
 "http://www.w3.org/TR/2001/REC-SVG-20010904/DTD/svg10.dtd">
<svg version="1.0" xmlns="http://www.w3.org/2000/svg"
 width="1024.000000pt" height="1038.000000pt" viewBox="0 0 1024.000000 1038.000000"
 preserveAspectRatio="xMidYMid meet">

<g transform="translate(0.000000,1038.000000) scale(0.100000,-0.100000)"
fill="#000000" stroke="none">
<path d="M4142 9989 c-30 -12 -43 -50 -37 -112 5 -51 20 -447 33 -854 8 -235
7 -234 99 -241 32 -2 63 -9 70 -14 8 -6 145 -9 360 -7 l348 3 3 -92 3 -93
-185 7 c-251 10 -236 21 -236 -176 0 -146 1 -150 24 -165 18 -12 30 -13 50 -5
39 15 67 12 81 -7 12 -16 17 -16 91 0 163 36 162 36 168 20 3 -8 6 -51 6 -95
l0 -80 -97 7 c-97 6 -200 19 -258 30 -23 5 -35 2 -48 -13 -15 -17 -17 -38 -15
-168 3 -144 4 -149 26 -160 16 -8 36 -8 68 -2 39 8 47 7 58 -7 13 -18 48 -16
243 9 20 3 22 -1 25 -78 2 -45 2 -83 1 -85 -3 -5 -186 14 -310 31 -116 17
-113 20 -113 -163 0 -180 2 -184 92 -174 36 4 58 3 58 -3 0 -20 35 -22 151 -5
65 9 121 14 125 11 3 -4 2 -216 -2 -471 l-7 -466 -41 -6 c-119 -19 -300 -93
-391 -159 l-50 -36 -135 137 c-644 654 -769 786 -760 804 14 26 127 59 206 62
59 1 76 -3 121 -27 67 -37 98 -70 137 -147 27 -53 37 -65 61 -67 15 -2 39 2
52 9 20 11 26 10 44 -9 11 -12 24 -22 29 -22 11 0 165 82 194 103 31 22 14 54
-79 154 -98 105 -185 170 -300 223 -107 50 -190 71 -310 77 -122 6 -237 -18
-352 -74 l-76 -37 -28 32 c-16 18 -29 41 -29 51 0 12 119 135 305 318 223 218
305 304 305 321 0 28 -73 116 -249 297 -216 222 -330 343 -426 450 -172 191
-307 325 -328 325 -22 0 -204 -172 -217 -205 -12 -33 0 -53 74 -117 116 -99
727 -681 724 -689 -2 -4 -103 -109 -226 -233 -201 -203 -223 -223 -233 -205
-9 17 -5 26 26 55 20 19 58 48 83 66 72 49 74 54 35 100 -40 47 -214 218 -239
235 -32 20 -48 9 -103 -76 -28 -43 -57 -84 -66 -91 -24 -20 -19 30 10 112 49
137 42 287 -19 415 -30 62 -135 193 -212 265 -77 72 -216 131 -340 144 -113
12 -268 -29 -369 -97 -109 -73 -208 -211 -240 -336 -19 -74 -19 -223 0 -297
45 -174 188 -334 354 -397 150 -57 375 -71 481 -31 55 21 55 21 75 1 20 -20
20 -20 -15 -50 -19 -16 -59 -43 -88 -60 -59 -34 -78 -60 -63 -86 5 -10 54 -62
109 -115 100 -98 127 -113 152 -83 12 14 15 13 35 -5 33 -31 51 -25 90 33 63
94 63 93 81 75 14 -14 -4 -35 -206 -234 -122 -121 -227 -222 -233 -225 -12 -6
-103 86 -432 441 -262 283 -326 347 -353 355 -19 6 -38 -8 -122 -90 -54 -53
-100 -104 -103 -114 -7 -30 7 -50 93 -127 179 -163 502 -466 681 -641 103
-101 198 -185 212 -188 14 -4 33 -2 44 3 13 7 24 6 38 -4 47 -34 56 -28 355
278 l286 292 40 -36 39 -37 -32 -58 c-146 -268 -115 -606 79 -850 88 -111 211
-199 254 -183 17 7 32 5 53 -7 25 -15 31 -15 46 -3 18 15 105 194 105 216 0 7
-13 23 -29 35 -16 12 -32 32 -35 45 -4 14 -28 37 -59 58 -69 43 -90 72 -119
154 -27 80 -30 222 -6 287 l15 40 414 -409 c228 -225 433 -428 457 -451 l43
-42 -42 -63 c-78 -117 -109 -196 -156 -390 -8 -32 -12 -35 -43 -34 -19 0 -478
4 -1020 7 -542 4 -1054 10 -1138 13 l-154 6 8 584 c7 616 7 614 -37 614 -14 0
-20 10 -25 40 -4 22 -13 45 -20 51 -8 6 -75 13 -166 15 -84 2 -232 9 -328 14
-96 5 -248 11 -338 12 -152 3 -165 2 -178 -16 -10 -15 -14 -55 -14 -161 0
-169 3 -175 93 -175 31 0 59 -5 63 -11 5 -9 81 -10 288 -5 154 4 285 8 291 9
6 1 10 -58 10 -163 l0 -165 -215 1 c-169 1 -243 6 -344 23 -125 21 -163 20
-178 -3 -4 -6 -8 -86 -8 -177 0 -195 0 -195 87 -186 45 5 59 3 68 -10 11 -15
23 -15 151 0 164 19 249 26 362 28 l83 2 3 -158 3 -158 -354 7 c-316 7 -357 6
-378 -8 -25 -16 -25 -18 -25 -165 0 -176 5 -185 91 -183 29 0 61 -5 73 -13 18
-12 67 -13 301 -6 154 4 284 5 289 3 15 -8 0 -313 -16 -323 -33 -21 -406 -4
-590 27 -152 26 -148 31 -148 -186 0 -202 3 -206 112 -187 28 5 37 3 42 -10 7
-17 8 -17 211 8 50 6 156 14 238 17 l147 7 0 -173 0 -173 -82 6 c-46 3 -204
10 -353 15 -233 8 -273 7 -292 -6 -22 -14 -23 -20 -23 -164 0 -176 2 -180 88
-180 32 0 65 -7 75 -14 14 -11 43 -13 115 -10 53 3 256 11 451 19 233 10 359
19 368 26 12 10 13 111 7 648 -7 606 -6 637 11 651 15 13 115 16 699 21 375 4
896 9 1158 12 l478 6 5 -27 c28 -139 77 -262 145 -366 l48 -73 -541 -534
c-297 -294 -548 -539 -557 -546 -16 -11 -17 -5 -19 70 -3 170 73 314 206 389
35 20 53 36 53 49 0 27 -81 169 -97 169 -7 0 -28 24 -47 54 -19 30 -44 57 -55
61 -29 9 -68 -15 -138 -87 -86 -89 -154 -198 -194 -314 -32 -95 -34 -105 -34
-244 0 -157 17 -230 71 -312 13 -21 24 -44 24 -52 0 -7 -18 -30 -41 -50 -45
-41 -57 -39 -79 14 -7 17 -20 30 -30 30 -12 0 -28 20 -47 58 -45 88 -56 85
-186 -46 -59 -60 -107 -115 -107 -123 0 -8 41 -53 92 -102 l92 -87 -41 -42
-41 -41 -209 214 c-115 118 -231 238 -258 267 -56 61 -97 86 -126 77 -12 -4
-73 -46 -137 -94 -181 -134 -240 -177 -565 -405 -164 -114 -229 -165 -233
-182 -7 -27 2 -41 100 -169 69 -90 91 -103 133 -82 27 14 30 14 41 -4 23 -37
54 -21 189 95 162 140 509 425 521 428 5 2 87 -71 181 -161 l172 -164 -38 -39
c-64 -67 -66 -66 -118 7 -26 36 -50 65 -55 65 -4 0 -24 22 -44 49 -62 88 -62
88 -187 -36 -137 -134 -137 -134 -19 -220 47 -35 101 -76 120 -93 l35 -29 -38
-36 c-35 -33 -39 -34 -60 -21 -12 8 -39 36 -60 61 -56 66 -71 63 -178 -42
-100 -98 -110 -123 -58 -151 17 -9 51 -30 76 -46 l44 -29 -40 -41 c-23 -23
-41 -51 -41 -62 0 -20 177 -203 215 -222 15 -7 27 -7 45 3 21 11 27 10 52 -8
22 -17 33 -19 46 -11 14 9 20 6 34 -18 29 -46 60 -55 105 -28 21 12 35 19 30
14 -10 -10 22 -44 42 -44 23 0 141 121 141 144 0 17 -27 54 -91 125 l-22 25
20 35 c11 19 25 37 30 38 5 2 36 -33 67 -77 71 -98 88 -110 126 -82 l27 20 25
-25 c32 -32 42 -27 131 65 72 76 81 102 43 127 -13 9 -27 27 -30 41 -4 14 -24
35 -49 50 -66 42 -117 85 -117 99 0 7 18 32 40 56 l39 44 61 -65 c33 -36 106
-110 161 -166 l100 -100 -53 -65 c-101 -123 -352 -415 -440 -510 -113 -124
-116 -144 -35 -204 28 -22 78 -61 110 -87 60 -49 68 -52 102 -39 13 5 28 3 42
-7 40 -26 64 -8 143 105 41 60 177 245 303 412 126 168 234 315 239 327 9 18
7 29 -7 51 -10 15 -132 140 -272 277 -139 137 -253 257 -253 266 0 9 13 31 28
48 l28 31 54 -54 c62 -63 76 -70 115 -55 22 8 31 7 45 -5 30 -28 54 -16 134
64 83 84 89 101 41 123 -15 7 -24 17 -21 25 10 24 -6 44 -53 67 -97 47 -95 43
-44 101 l46 52 83 -29 c121 -42 310 -71 404 -63 93 8 225 51 310 101 54 31
186 151 226 205 14 18 2 54 -23 67 -9 6 -22 25 -28 44 -9 28 -25 40 -101 80
-101 53 -147 66 -169 48 -8 -7 -35 -43 -60 -80 -77 -115 -199 -180 -341 -180
-40 0 -79 3 -88 6 -11 4 87 110 358 382 205 208 451 459 546 560 95 100 177
182 181 182 5 0 43 -18 86 -40 89 -45 199 -86 258 -95 22 -4 49 -9 59 -12 19
-5 19 -20 12 -577 -12 -980 -17 -1465 -16 -1640 l0 -169 -217 7 c-120 4 -333
7 -473 7 -140 0 -358 4 -485 8 -131 4 -242 3 -258 -2 -15 -5 -33 -19 -39 -31
-7 -13 -13 -104 -15 -251 -2 -126 -6 -250 -9 -273 -5 -39 -8 -43 -27 -39 -78
19 -115 19 -134 0 -17 -17 -19 -34 -18 -137 1 -112 2 -120 24 -137 13 -11 31
-17 40 -15 64 18 77 17 90 -8 22 -40 10 -45 -58 -23 l-63 22 -18 -23 c-16 -19
-18 -39 -16 -143 2 -143 6 -149 97 -149 32 0 59 -4 61 -9 2 -5 129 -11 291
-12 244 -3 290 -1 297 11 6 8 10 54 10 101 0 94 -9 113 -50 102 -15 -4 -21 -3
-16 5 9 15 -10 93 -26 104 -7 5 -26 6 -41 3 -19 -3 -26 -1 -21 6 7 11 71 7
106 -6 10 -4 25 2 38 15 17 17 21 29 16 54 l-6 32 62 -4 c35 -2 77 -10 93 -17
30 -13 156 -8 171 7 3 4 6 19 6 35 1 49 7 71 24 77 15 6 16 -4 11 -100 -6
-132 1 -144 91 -144 32 0 63 -5 69 -11 6 -6 49 -9 112 -7 l101 3 0 -100 c0
-131 9 -145 89 -145 31 0 62 -5 68 -11 15 -15 571 -13 589 2 10 8 14 36 14 89
0 97 -5 110 -40 110 -25 0 -28 4 -33 46 -5 51 -17 63 -62 64 -26 1 -27 2 -12
11 12 7 33 7 65 0 26 -5 51 -6 55 -2 5 5 21 -5 37 -20 24 -25 36 -29 84 -29
30 0 58 -4 61 -10 3 -6 50 -10 104 -10 75 0 101 4 111 15 12 15 10 69 -6 222
-6 49 -5 53 15 53 19 0 21 -4 15 -40 -6 -34 -3 -45 16 -65 20 -21 33 -25 80
-25 31 0 61 -5 68 -12 14 -14 150 -12 168 3 9 7 14 2 19 -21 9 -40 38 -51 100
-38 52 11 65 4 65 -39 0 -28 3 -28 -66 -2 -56 21 -56 21 -76 2 -17 -18 -19
-34 -19 -137 0 -145 6 -156 91 -156 31 0 61 -5 66 -10 17 -17 575 -15 586 2 4
7 7 54 6 103 l-3 90 -31 0 c-30 0 -31 2 -32 45 -2 55 -31 85 -71 75 -14 -4
-22 -3 -17 2 4 4 40 8 80 8 l71 0 0 100 c0 99 0 100 -25 104 -30 4 -40 17 -40
53 0 40 -26 60 -70 55 l-37 -4 -7 66 c-3 36 -6 104 -6 151 0 47 -3 123 -7 169
-6 81 -7 84 -35 95 -20 8 -30 19 -34 44 -12 62 -23 64 -311 58 -531 -12 -1078
-16 -1091 -8 -9 6 -14 182 -21 793 -5 431 -10 952 -10 1157 l-1 372 32 20 c18
11 49 23 68 26 70 13 207 67 283 111 43 25 79 44 80 42 1 -2 142 -145 312
-317 l309 -312 -30 -31 c-24 -26 -166 -137 -241 -189 -11 -8 -24 -25 -28 -38
-6 -20 8 -38 92 -123 117 -120 124 -125 163 -106 26 14 30 13 46 -4 9 -10 25
-19 35 -19 16 0 59 48 59 67 0 4 16 23 35 42 19 19 35 38 35 43 0 6 20 31 45
56 l46 46 37 -38 37 -38 -60 -54 c-33 -30 -96 -80 -140 -111 -87 -61 -105 -79
-105 -101 0 -16 182 -207 213 -223 12 -7 26 -6 46 4 27 13 31 13 50 -7 26 -26
42 -18 89 45 58 77 144 179 151 179 3 -1 28 -20 55 -44 l48 -44 -88 -66 c-49
-36 -117 -82 -152 -102 -69 -41 -88 -64 -73 -91 10 -19 205 -213 213 -213 3 0
19 5 37 11 27 10 35 8 52 -7 30 -27 53 -12 161 102 l96 100 46 -40 47 -41
-305 -295 c-168 -162 -310 -305 -315 -318 -8 -17 -8 -29 0 -45 10 -17 120
-184 373 -562 7 -11 44 -69 81 -130 71 -114 111 -165 129 -165 6 0 24 7 40 15
27 14 30 14 43 -5 8 -11 24 -20 36 -20 31 1 197 125 197 148 0 9 -17 38 -37
64 -200 246 -428 548 -438 578 -11 33 23 74 233 283 l199 198 129 -133 c71
-73 174 -179 227 -234 l98 -102 -33 -6 c-47 -8 -162 18 -216 50 -25 15 -65 44
-87 66 -23 21 -51 38 -61 38 -10 0 -58 -39 -106 -87 -103 -102 -110 -124 -52
-168 122 -93 387 -175 567 -175 248 0 472 167 543 405 13 44 18 93 18 180 0
105 -3 130 -28 200 -32 94 -88 198 -117 218 -11 8 -35 36 -54 63 -36 50 -57
64 -86 57 -10 -3 -56 -45 -104 -93 -99 -101 -100 -107 -33 -175 44 -45 95
-142 102 -195 2 -19 1 -54 -2 -76 l-7 -42 -220 211 c-121 116 -224 217 -229
225 -10 18 431 465 452 457 18 -7 245 -180 522 -399 76 -60 96 -69 119 -56 15
8 29 6 55 -7 35 -16 37 -16 59 5 38 36 117 157 117 180 0 11 -10 29 -23 39
-12 10 -27 30 -34 44 -10 24 -64 61 -310 213 -27 17 -166 108 -309 203 -195
129 -269 173 -292 173 -27 0 -67 -37 -327 -303 l-296 -302 -34 40 c-19 22 -35
45 -35 51 0 6 56 66 125 133 70 68 125 130 125 140 0 21 -241 277 -270 286
-31 10 -57 -11 -90 -73 -29 -55 -120 -183 -152 -215 -14 -14 -19 -11 -59 29
-36 36 -42 48 -33 62 9 15 91 86 235 203 l43 36 -19 29 c-10 16 -71 82 -134
147 -120 121 -145 135 -176 100 -9 -10 -43 -55 -75 -100 -33 -45 -80 -103
-104 -130 l-44 -48 -31 29 c-17 17 -31 37 -31 47 0 20 50 67 183 172 53 43 97
82 97 87 0 32 -257 290 -289 290 -23 0 -24 0 -112 -118 -34 -46 -82 -105 -108
-132 l-46 -49 -303 297 c-224 220 -302 303 -302 320 0 13 14 43 30 68 54 77
109 206 136 314 14 58 33 112 40 120 13 13 79 15 474 15 253 0 460 -3 460 -8
0 -4 -18 -25 -41 -47 -71 -69 -190 -97 -279 -65 -88 31 -101 22 -160 -114 -57
-130 -53 -153 27 -172 101 -24 231 -49 261 -49 63 0 188 32 262 67 89 43 190
139 233 223 l27 54 0 -114 c0 -63 -4 -140 -9 -170 -5 -30 -12 -94 -16 -141 -8
-102 1 -119 68 -119 23 -1 60 -7 82 -15 52 -19 204 -20 229 -2 18 13 18 21 3
193 -14 152 -22 355 -18 429 1 16 4 15 17 -10 118 -227 305 -357 572 -397 99
-14 102 -11 102 108 0 93 0 95 -27 107 -35 15 -43 25 -43 59 0 35 -22 46 -96
49 -105 3 -208 51 -202 94 3 19 11 20 200 23 194 2 197 2 203 -19 4 -12 4
-190 0 -395 l-7 -373 25 -25 c19 -19 37 -26 63 -26 20 0 62 -6 93 -14 31 -8
128 -17 216 -20 88 -4 212 -11 275 -17 63 -5 194 -16 290 -24 96 -8 200 -17
230 -20 82 -10 88 -1 92 121 3 107 -6 134 -43 134 -13 0 -19 7 -19 24 0 13 -9
35 -21 50 l-20 26 -407 1 c-224 0 -414 3 -422 7 -13 6 -16 47 -19 259 -5 328
-19 303 172 303 78 0 276 -5 439 -10 212 -8 304 -8 318 0 18 10 20 21 20 134
0 128 -4 140 -45 148 -14 2 -21 13 -23 33 -2 17 -11 38 -20 48 -15 16 -41 17
-440 11 l-425 -7 6 263 c5 223 8 265 22 279 14 14 69 16 466 20 524 4 469 -13
460 140 -6 96 -9 101 -53 115 -12 4 -18 16 -18 36 0 17 -9 39 -21 51 -22 22
-39 22 -269 -1 -52 -6 -196 -17 -320 -25 -304 -20 -391 -26 -415 -30 -11 -1
-44 -3 -73 -4 -45 -1 -58 -6 -83 -30 l-29 -29 7 -395 6 -394 -33 -6 c-41 -9
-257 -9 -298 -1 l-30 6 33 29 c47 42 113 68 196 78 40 5 76 15 80 23 10 15 12
168 3 192 -3 9 -17 16 -30 16 -18 0 -25 7 -30 28 -11 51 -23 71 -48 78 -36 9
-196 -39 -281 -84 -94 -50 -209 -164 -258 -257 l-36 -70 -1 68 c0 38 7 149 16
248 16 190 14 209 -26 209 -20 0 -32 23 -24 44 3 8 -4 24 -15 35 -19 19 -33
21 -150 21 -111 0 -132 -3 -152 -19 l-23 -18 17 -164 c22 -217 32 -469 19
-469 -6 0 -23 24 -40 53 -16 29 -76 100 -133 158 -80 81 -120 114 -174 141
-139 71 -319 107 -370 74 -18 -12 -25 -25 -25 -47 0 -37 38 -205 52 -233 10
-18 21 -19 103 -3 11 2 26 -5 35 -16 14 -16 21 -18 52 -9 28 8 44 6 74 -8 37
-16 114 -90 114 -109 0 -11 -970 -26 -979 -15 -4 5 -16 39 -25 76 -19 70 -79
199 -134 284 -27 42 -31 55 -23 76 5 13 120 133 256 265 l248 241 31 -41 c39
-51 78 -74 136 -80 25 -3 59 -10 77 -15 17 -6 34 -7 38 -4 4 4 -1 -12 -10 -35
-29 -72 -19 -86 102 -143 60 -28 120 -50 139 -50 18 0 45 -5 60 -12 23 -11 28
-10 44 10 41 50 73 286 59 428 -12 116 -33 193 -81 294 -60 128 -66 143 -59
170 6 23 10 20 54 -42 26 -36 55 -69 63 -72 9 -4 30 1 47 9 28 14 32 14 52 -5
12 -11 27 -20 34 -20 16 0 141 128 141 145 0 8 -11 22 -24 32 -13 10 -26 29
-30 41 -4 12 -34 40 -67 63 -32 23 -59 45 -59 48 0 3 10 19 23 34 l22 28 69
-26 c164 -62 409 -86 531 -54 42 12 50 18 53 39 4 38 -62 176 -87 183 -13 3
-28 23 -40 50 -29 66 -48 73 -118 41 -37 -17 -83 -28 -128 -31 l-70 -5 98 98
98 99 255 -257 c140 -142 262 -262 272 -267 12 -6 25 -5 42 4 21 11 27 10 51
-8 26 -18 30 -19 51 -4 13 8 122 108 243 223 121 114 293 274 383 357 112 103
162 156 162 170 0 12 -11 33 -24 47 -150 159 -215 220 -239 226 -32 7 -49 -9
-268 -251 -70 -77 -185 -201 -257 -275 l-130 -135 -163 160 c-90 88 -167 165
-172 172 -4 6 -5 18 -1 26 3 8 134 138 292 288 342 326 352 337 352 354 0 19
-90 122 -189 218 -56 54 -87 77 -105 77 -19 0 -92 -70 -342 -330 l-318 -331
-167 173 c-160 166 -166 174 -155 199 11 26 255 260 510 489 69 62 127 119
131 128 3 8 -2 26 -11 40 -25 39 -240 252 -254 252 -26 0 -57 -30 -266 -257
-121 -131 -290 -312 -378 -402 -87 -91 -162 -174 -166 -186 -4 -11 -3 -29 4
-41 6 -11 137 -144 291 -294 154 -151 281 -276 283 -280 1 -3 -43 -50 -99
-105 l-101 -100 6 62 c3 35 17 90 31 125 28 69 26 90 -10 106 -14 6 -25 20
-25 30 0 10 -10 28 -22 39 -27 24 -201 113 -222 113 -29 0 -54 -50 -70 -138
-32 -173 -14 -322 56 -474 34 -72 39 -90 28 -103 -13 -16 -40 -21 -40 -6 0 4
-21 30 -46 57 -25 27 -52 61 -60 76 -19 37 -48 52 -75 38 -11 -6 -56 -48 -100
-93 -101 -103 -101 -112 -3 -182 39 -27 83 -60 99 -73 l29 -23 -22 -21 -21
-21 -58 34 c-136 82 -279 119 -463 119 -79 0 -179 -11 -225 -24 -5 -2 -23 -6
-40 -11 -144 -37 -405 -179 -436 -237 -14 -25 -3 -41 89 -136 80 -82 106 -95
141 -73 10 7 23 3 39 -10 14 -10 28 -19 33 -19 4 0 34 21 66 48 101 82 93 78
82 37 -29 -106 65 -225 178 -225 22 0 47 -6 57 -13 15 -11 -8 -39 -236 -271
l-253 -258 -55 37 c-74 51 -198 108 -292 135 l-76 23 1 463 c2 365 5 466 15
476 17 17 154 13 285 -8 129 -21 127 -23 127 121 0 118 -8 140 -46 133 -14 -2
-18 4 -20 31 -1 18 -11 42 -22 54 -20 20 -25 20 -99 9 -43 -7 -116 -15 -162
-19 l-84 -6 5 65 c2 36 10 73 17 82 18 21 99 21 258 0 67 -9 129 -14 138 -10
13 5 15 24 13 128 l-3 123 -30 5 c-26 4 -29 9 -32 45 -3 47 -25 68 -68 61 -16
-2 -61 -9 -100 -15 -38 -5 -96 -12 -127 -14 l-58 -3 0 76 c0 108 7 115 106
107 43 -4 104 -13 134 -21 30 -8 82 -16 115 -18 l60 -3 0 125 0 125 -31 9
c-26 8 -31 15 -32 40 0 19 -9 38 -24 50 -21 16 -38 18 -173 15 l-150 -4 -3 72
c-2 62 0 75 18 93 21 21 23 21 429 14 395 -7 409 -6 418 12 6 10 13 132 17
269 3 138 11 380 18 538 7 194 8 291 1 298 -5 5 -20 11 -32 12 -16 1 -21 8
-21 30 0 17 -10 38 -25 53 -25 25 -28 26 -149 22 -178 -4 -170 7 -162 -228 3
-102 8 -270 11 -375 3 -104 8 -224 10 -266 l5 -76 -255 -7 c-140 -4 -260 -4
-266 0 -12 7 -11 62 13 577 7 164 7 252 1 258 -6 6 -20 11 -32 12 -16 1 -21 8
-21 30 0 16 -10 38 -25 52 -23 24 -30 25 -149 25 -131 0 -169 -8 -184 -37 -6
-11 -6 -77 -2 -168 5 -82 11 -217 14 -300 3 -82 9 -219 12 -304 l7 -154 -33 6
c-18 4 -138 7 -268 7 l-235 0 6 173 c4 94 12 277 19 406 l11 234 -22 19 c-13
10 -27 16 -31 13 -9 -6 -20 19 -20 45 0 10 -12 28 -26 39 -24 19 -40 21 -138
20 -61 -1 -121 -5 -134 -10z m262 -37 c2 -4 -4 -210 -14 -457 -11 -279 -14
-457 -8 -467 8 -17 34 -18 327 -18 359 0 348 -2 337 72 -3 24 -11 178 -16 343
-5 165 -12 353 -16 418 l-7 117 148 0 148 0 -8 -127 c-14 -236 -16 -277 -22
-535 -5 -201 -3 -261 7 -273 19 -22 621 -23 640 0 13 16 10 221 -10 694 -7
154 -6 218 1 228 9 9 45 13 136 13 l125 0 -7 -197 c-3 -109 -11 -259 -16 -333
-5 -74 -9 -236 -9 -360 0 -124 -4 -231 -9 -239 -10 -16 -35 -16 -541 -5 -266
6 -307 5 -318 -9 -9 -10 -12 -50 -10 -138 l3 -124 193 -2 c106 0 199 -4 207
-7 12 -4 15 -30 15 -141 0 -130 -1 -135 -21 -135 -11 0 -28 4 -37 9 -24 13
-260 51 -314 51 l-46 0 -4 -127 c-3 -71 -3 -134 0 -140 7 -22 186 -15 352 13
73 12 70 19 70 -130 0 -74 -4 -137 -9 -141 -6 -3 -41 -1 -78 5 -37 6 -81 13
-98 14 -132 14 -197 18 -219 12 l-27 -7 3 -122 3 -122 115 3 c63 1 155 9 203
17 49 8 93 13 98 10 5 -4 9 -67 9 -142 l0 -136 -57 6 c-32 3 -121 13 -197 22
-76 8 -147 13 -157 10 -18 -6 -19 -26 -17 -513 l3 -506 25 -12 c14 -7 54 -18
90 -24 113 -20 264 -89 386 -175 19 -14 41 5 459 425 242 242 443 447 449 457
13 23 -17 45 -117 84 -78 32 -88 33 -217 33 -124 0 -142 -3 -222 -31 -106 -37
-178 -79 -264 -155 -36 -32 -68 -58 -72 -58 -11 0 -162 154 -162 166 0 33 189
147 328 197 138 50 200 61 342 61 198 0 345 -41 487 -134 l31 -21 37 32 c24
21 35 39 33 53 -2 13 -36 46 -90 86 -48 36 -93 71 -100 78 -10 10 3 28 67 92
44 44 85 80 92 80 7 0 31 -28 54 -62 50 -73 107 -138 122 -138 6 0 24 12 39
27 37 36 36 68 -6 152 -79 155 -91 322 -41 539 3 13 13 22 24 22 16 0 211 -97
211 -105 0 -1 -14 -34 -32 -71 -41 -87 -48 -167 -23 -259 29 -107 28 -108 183
55 75 78 138 146 140 150 1 4 -130 137 -293 295 -273 267 -313 313 -286 329
18 11 409 424 576 609 94 103 177 187 185 187 20 0 180 -161 180 -182 0 -9 -8
-23 -19 -30 -58 -41 -651 -596 -651 -610 0 -5 96 -108 213 -229 161 -167 217
-219 233 -217 13 2 142 129 329 323 168 176 314 324 322 329 12 6 39 -16 117
-93 l101 -101 -115 -113 c-63 -61 -212 -204 -330 -316 -118 -112 -219 -212
-224 -223 -8 -16 22 -50 210 -233 120 -118 226 -214 235 -214 9 -1 76 63 150
142 204 215 402 430 439 475 18 23 39 43 47 47 17 6 193 -159 193 -181 0 -7
-35 -43 -77 -81 -125 -111 -214 -194 -481 -448 -139 -132 -259 -241 -266 -243
-7 -2 -142 130 -301 293 -158 162 -292 295 -297 295 -14 0 -288 -263 -288
-276 0 -28 138 -59 219 -49 31 4 82 18 115 32 32 13 64 22 70 20 7 -3 32 -51
56 -107 52 -123 53 -121 -80 -140 -160 -23 -309 2 -453 78 l-68 35 -40 -39
c-21 -21 -39 -43 -39 -49 0 -16 54 -64 133 -119 37 -26 67 -51 67 -55 0 -3
-38 -44 -84 -90 l-84 -83 -73 98 c-91 120 -100 126 -134 94 -48 -44 -48 -52
-3 -136 57 -109 94 -216 109 -314 14 -101 7 -289 -16 -375 -9 -33 -20 -77 -26
-97 -5 -21 -16 -38 -23 -38 -22 0 -208 92 -213 106 -2 7 7 34 20 60 56 111 79
259 58 379 -17 94 -68 225 -88 225 -9 0 -185 -168 -392 -374 -207 -205 -406
-403 -443 -439 -38 -36 -68 -70 -68 -75 0 -5 20 -38 44 -73 24 -35 52 -82 63
-104 33 -63 80 -205 88 -262 12 -94 -42 -87 581 -77 536 9 549 9 546 29 -6 34
-60 102 -109 138 -28 20 -75 42 -112 52 -58 15 -66 15 -113 -1 -27 -9 -53 -12
-58 -8 -7 9 -50 197 -50 222 0 18 123 15 195 -4 168 -43 326 -164 389 -298 18
-39 38 -83 45 -98 9 -25 15 -28 60 -28 27 0 53 5 56 11 4 6 7 70 6 142 -1 123
-8 210 -31 426 -8 65 -7 87 3 93 19 12 241 10 254 -3 7 -7 8 -22 3 -42 -10
-38 -29 -281 -37 -463 -5 -114 -3 -132 11 -147 20 -19 58 -22 87 -7 10 6 38
48 60 93 55 109 101 169 174 224 75 57 157 96 260 123 75 20 80 20 92 4 18
-24 18 -208 1 -222 -7 -5 -42 -12 -78 -15 -94 -8 -134 -23 -192 -70 -62 -51
-117 -125 -101 -135 15 -10 539 1 550 11 10 11 10 65 0 475 -5 212 -4 328 2
341 12 22 43 29 176 36 55 3 116 7 135 10 19 2 85 7 145 10 61 3 135 8 165 11
72 7 130 11 334 25 141 10 170 9 177 -2 5 -8 9 -66 9 -130 l0 -117 -457 -4
c-252 -3 -466 -8 -475 -12 -17 -8 -18 -33 -18 -328 l0 -320 408 8 c224 5 436
9 472 9 l65 0 3 -139 c1 -77 -1 -143 -6 -148 -6 -6 -196 -5 -459 2 -248 6
-458 8 -467 4 -14 -5 -16 -38 -16 -318 0 -229 3 -315 12 -324 9 -9 125 -12
459 -12 246 0 454 -3 463 -6 24 -9 24 -252 0 -261 -13 -5 -136 3 -349 23 -46
4 -253 20 -400 30 -55 4 -104 7 -108 5 -25 -6 -252 21 -265 32 -13 10 -14 55
-8 317 4 168 7 348 7 400 2 137 18 130 -302 130 -206 0 -259 -3 -259 -13 0
-21 99 -125 143 -151 52 -30 115 -47 187 -51 l55 -3 3 -110 c3 -137 0 -142
-94 -118 -143 36 -286 121 -360 214 -25 31 -63 94 -84 138 -42 87 -69 109
-126 102 l-29 -3 0 -130 c0 -71 7 -204 15 -295 8 -91 14 -183 15 -205 l0 -40
-130 0 -130 0 1 25 c0 14 7 88 15 165 8 77 14 216 14 310 l0 170 -46 3 c-52 3
-58 -2 -83 -73 -38 -106 -100 -193 -180 -254 -65 -48 -101 -67 -184 -94 -133
-43 -375 -22 -359 30 9 29 79 187 87 196 4 5 33 1 65 -8 143 -42 290 9 365
125 53 83 97 76 -517 83 -614 7 -565 13 -577 -70 -16 -118 -87 -291 -162 -395
l-35 -49 63 -69 c92 -100 649 -644 663 -648 18 -4 164 166 247 288 l16 25 101
-100 c56 -55 100 -103 99 -106 -2 -4 -48 -41 -103 -82 -55 -42 -125 -99 -155
-126 l-55 -50 93 -93 93 -93 50 55 c42 46 110 132 193 245 14 19 19 16 115
-80 56 -55 101 -102 101 -105 0 -3 -27 -25 -60 -49 -100 -70 -240 -192 -240
-208 0 -16 173 -186 195 -191 15 -4 155 179 189 247 42 81 41 82 150 -28 54
-54 97 -103 95 -108 -2 -6 -63 -65 -136 -132 -72 -67 -133 -128 -136 -135 -6
-14 166 -186 185 -186 13 0 109 96 408 408 110 113 203 202 213 202 9 0 79
-42 155 -93 113 -77 458 -301 602 -392 19 -12 54 -34 78 -48 23 -15 42 -33 42
-40 0 -16 -130 -197 -151 -210 -12 -8 -23 -5 -42 9 -13 10 -60 47 -103 81
-254 200 -505 390 -542 411 -23 13 -30 8 -155 -115 -73 -71 -183 -179 -246
-240 -99 -97 -112 -113 -103 -130 6 -11 66 -71 134 -133 68 -63 194 -184 281
-269 124 -121 160 -152 170 -142 8 8 12 47 11 114 0 90 -3 109 -27 157 -15 31
-47 79 -72 107 -25 28 -45 57 -45 65 1 15 153 158 169 158 26 0 105 -147 143
-270 28 -86 29 -258 4 -345 -60 -201 -213 -349 -411 -400 -85 -22 -225 -19
-319 5 -110 29 -286 121 -286 149 0 6 131 140 165 170 3 2 27 -17 54 -42 92
-86 199 -122 330 -110 34 3 61 10 61 16 0 13 -42 58 -323 350 -126 130 -235
237 -241 237 -13 0 -467 -464 -480 -490 -8 -18 -6 -23 164 -245 96 -126 183
-239 246 -315 85 -105 88 -113 61 -137 -42 -37 -186 -133 -201 -133 -8 0 -42
46 -77 103 -34 56 -156 243 -271 415 -114 173 -208 319 -208 326 0 13 172 185
448 445 94 90 172 171 172 181 0 9 -38 56 -85 104 -70 71 -88 85 -103 77 -10
-5 -65 -60 -122 -123 -114 -124 -129 -138 -145 -138 -13 0 -195 179 -195 192
0 4 12 15 28 24 71 44 220 147 250 173 19 16 32 36 30 45 -5 26 -178 195 -193
189 -19 -7 -112 -116 -183 -214 -31 -44 -62 -79 -69 -79 -6 0 -55 44 -107 98
l-96 97 27 20 c163 122 183 138 250 202 24 22 32 37 26 47 -17 29 -154 166
-167 166 -16 0 -116 -114 -193 -221 -32 -43 -63 -79 -69 -79 -16 0 -194 180
-194 196 0 7 9 18 20 24 69 37 280 216 280 238 0 14 -696 722 -710 722 -4 0
-44 -25 -90 -55 -95 -62 -232 -119 -338 -138 -40 -8 -75 -17 -79 -20 -7 -8 -6
-1029 3 -1577 3 -206 6 -480 7 -608 2 -195 4 -234 17 -242 21 -13 682 -13
1098 1 295 10 346 10 358 -3 11 -11 16 -74 23 -297 5 -155 13 -287 18 -292 5
-5 33 -4 68 2 110 20 100 30 103 -103 3 -136 9 -130 -100 -104 -71 17 -77 11
-69 -67 10 -80 19 -86 86 -58 30 13 61 21 69 18 10 -4 13 -30 11 -114 -2 -59
-3 -110 -4 -113 -1 -3 -137 -5 -304 -4 l-302 0 -3 109 c-1 60 -1 114 2 121 3
8 21 6 65 -10 82 -28 96 -20 96 60 l0 59 -30 -1 c-16 0 -54 -4 -82 -9 l-53 -8
0 116 c0 64 4 118 9 121 4 3 41 -1 81 -10 40 -8 76 -11 80 -7 4 4 10 87 14
184 5 156 4 178 -10 183 -9 3 -85 6 -169 6 -145 0 -154 -1 -160 -20 -10 -31 1
-39 45 -33 l40 6 0 -56 c0 -60 -9 -70 -49 -55 -31 11 -44 -2 -43 -43 1 -42 14
-54 42 -39 41 22 51 7 48 -72 l-3 -73 -34 0 -35 0 3 -62 2 -63 -43 0 c-24 0
-66 -3 -94 -6 -66 -8 -86 9 -73 63 16 68 13 74 -28 71 l-38 -3 -3 73 c-3 79 4
90 50 73 33 -13 44 -3 45 41 1 42 -14 52 -54 37 -36 -13 -45 -1 -41 57 l3 49
40 0 c31 0 40 4 43 19 9 43 -13 46 -369 46 -371 0 -363 1 -357 -62 l3 -33 250
0 c138 0 255 -3 261 -7 7 -5 14 -66 18 -160 4 -84 12 -204 17 -267 7 -84 6
-117 -2 -128 -9 -10 -37 -13 -123 -11 l-111 3 1 65 c0 79 14 274 20 279 2 2
-1 12 -7 22 -9 17 -24 19 -163 19 -170 0 -168 1 -157 -65 6 -39 7 -40 46 -37
22 2 52 8 68 14 47 18 57 0 57 -112 0 -114 -8 -127 -68 -115 -20 4 -50 8 -67
9 -30 1 -30 1 -33 -60 -4 -83 6 -90 88 -63 51 17 65 18 71 7 11 -16 12 -199 1
-213 -4 -6 -119 -10 -310 -10 l-302 0 0 124 c0 113 1 123 18 116 9 -4 41 -16
71 -26 66 -23 71 -19 71 70 l0 64 -40 -7 c-22 -3 -58 -9 -80 -12 l-40 -7 0
122 c0 128 3 136 48 112 9 -5 37 -10 62 -12 45 -4 45 -4 51 31 10 68 5 70
-155 70 -104 0 -146 -4 -154 -13 -10 -12 -2 -220 13 -312 10 -60 -2 -66 -131
-63 l-109 3 0 60 c1 102 16 448 21 481 l4 31 251 -5 c272 -5 269 -6 269 49 0
14 -5 30 -12 37 -13 13 -282 15 -568 3 -146 -6 -155 -7 -155 -26 0 -16 8 -21
43 -23 l42 -3 0 -60 c0 -59 0 -59 -25 -53 -57 14 -60 12 -60 -36 0 -39 2 -45
20 -42 63 10 60 13 60 -68 l0 -75 -32 2 c-40 4 -44 -3 -32 -56 6 -29 6 -47 -1
-56 -14 -17 -178 -29 -197 -14 -10 9 -12 26 -7 72 l7 60 -37 -7 -37 -7 3 78
c3 84 0 81 63 71 18 -3 20 3 20 42 l0 45 -40 1 -40 1 -3 53 -3 53 40 -7 c40
-6 41 -6 41 24 l0 30 -162 -2 -163 -3 1 -178 c0 -97 5 -182 10 -187 6 -6 37
-5 82 2 40 6 76 8 79 4 11 -11 21 -180 12 -205 -8 -21 -13 -22 -52 -17 -23 4
-60 8 -82 9 l-40 2 4 -50 c2 -27 7 -60 12 -72 8 -22 9 -22 56 -7 26 9 60 18
76 21 l27 5 0 -110 c0 -76 -4 -112 -12 -119 -14 -9 -589 -10 -605 0 -11 7 -11
206 -1 223 5 7 28 4 75 -12 49 -16 71 -20 80 -12 16 13 18 124 3 133 -6 4 -42
1 -81 -6 -53 -9 -72 -10 -78 -1 -8 14 -7 220 2 228 3 3 38 -1 77 -10 51 -12
76 -14 85 -6 9 7 14 86 19 293 6 219 11 285 21 296 12 13 91 13 572 2 307 -6
632 -10 723 -9 l165 3 6 240 c4 132 10 575 13 985 3 410 8 844 12 965 3 126 2
226 -4 233 -5 7 -49 21 -98 31 -136 28 -266 84 -355 153 -56 42 -74 37 -147
-39 -35 -38 -195 -201 -355 -363 -622 -628 -727 -737 -727 -752 0 -21 101 -55
185 -64 170 -17 362 83 436 228 11 22 26 41 33 44 16 6 206 -85 213 -102 12
-31 -84 -149 -175 -217 -66 -48 -197 -110 -272 -128 -72 -17 -248 -17 -329 0
-35 8 -102 34 -149 57 l-85 43 -68 -66 c-58 -56 -67 -69 -56 -81 17 -21 134
-96 180 -115 20 -9 37 -20 37 -26 0 -15 -181 -191 -197 -191 -7 0 -53 41 -102
92 l-88 92 -57 -55 c-31 -31 -56 -65 -56 -75 0 -12 108 -122 275 -284 154
-148 275 -273 275 -282 0 -10 -44 -75 -98 -145 -237 -310 -207 -270 -415 -560
-71 -98 -137 -179 -147 -181 -10 -2 -45 20 -81 50 -35 30 -79 64 -96 77 -18
12 -33 30 -33 39 0 10 37 58 81 107 45 50 116 130 158 179 42 49 119 139 171
200 143 167 170 203 170 223 0 18 -396 423 -415 423 -16 0 -125 -123 -125
-141 0 -20 62 -77 149 -139 116 -82 116 -61 0 -175 l-101 -100 -23 30 c-13 17
-57 72 -97 124 -40 52 -78 96 -84 98 -13 4 -94 -77 -109 -109 -8 -17 1 -29 58
-84 37 -36 67 -69 67 -74 0 -6 -36 -46 -79 -90 -85 -86 -100 -91 -122 -37 -21
55 -63 117 -79 117 -9 0 -34 -18 -55 -40 -21 -22 -44 -40 -50 -40 -6 0 -55 45
-110 100 l-99 100 47 48 c26 26 47 52 47 58 0 10 -82 62 -132 85 -16 7 -28 15
-28 18 0 4 38 45 85 91 l86 85 65 -67 c37 -38 72 -68 80 -68 23 0 104 85 104
109 0 27 -27 52 -147 142 -51 38 -93 72 -93 76 0 12 184 193 195 193 6 0 33
-30 60 -67 82 -115 139 -183 155 -183 8 0 46 30 84 67 l69 66 -221 220 -220
219 -103 -83 c-304 -247 -499 -410 -571 -476 -58 -53 -79 -54 -108 -7 -13 19
-47 65 -77 101 -29 37 -52 71 -50 77 3 9 373 276 478 344 14 9 116 84 227 165
129 95 209 147 221 145 11 -2 137 -124 281 -273 144 -148 269 -274 277 -279
12 -6 31 7 77 53 l61 62 -92 89 c-51 49 -93 95 -93 102 0 19 186 202 198 194
5 -3 15 -20 23 -38 15 -40 94 -161 114 -178 12 -10 25 -3 70 36 84 71 94 102
51 164 -72 107 -94 316 -51 486 35 136 147 314 248 394 39 31 53 38 63 29 16
-13 114 -184 114 -198 0 -6 -21 -19 -47 -31 -68 -30 -156 -120 -189 -194 -31
-69 -44 -187 -31 -275 9 -63 44 -151 60 -151 12 0 169 154 814 794 l382 380
-23 30 c-81 109 -145 255 -172 394 -8 42 -20 82 -27 89 -9 9 -232 10 -1007 2
-1584 -15 -1437 -12 -1456 -31 -16 -16 -17 -58 -6 -647 6 -347 9 -637 6 -646
-4 -8 -16 -17 -28 -19 -33 -7 -930 -34 -938 -29 -5 2 -8 67 -8 143 0 128 2
139 19 145 10 3 86 1 168 -4 81 -6 236 -13 343 -17 159 -5 198 -4 206 7 7 8
14 92 18 200 6 159 4 188 -8 199 -38 30 -503 16 -663 -21 -84 -20 -83 -22 -83
155 0 85 4 157 9 160 4 3 59 -4 122 -15 156 -28 573 -39 604 -16 19 14 20 29
23 213 l3 197 -374 -6 c-335 -6 -376 -5 -381 9 -3 9 -6 71 -6 139 0 92 3 125
14 134 9 8 56 10 152 6 294 -11 563 -15 578 -9 14 5 16 31 16 190 0 180 0 184
-22 196 -52 29 -470 14 -656 -23 -84 -17 -82 -21 -82 156 l0 155 30 0 c16 0
91 -9 167 -19 257 -36 495 -39 540 -6 17 12 18 28 15 202 -2 143 -7 191 -17
202 -12 12 -42 12 -197 3 -101 -6 -260 -14 -355 -18 l-172 -6 -6 24 c-3 13 -4
77 -3 143 l3 120 130 0 c124 1 328 -6 680 -23 l160 -7 0 -150 c0 -82 -2 -373
-5 -645 l-5 -495 145 -6 c80 -4 633 -12 1229 -18 898 -10 1087 -10 1098 1 7 8
18 40 23 73 23 128 68 238 146 356 24 37 44 73 44 81 0 20 -988 1000 -1014
1006 -24 5 -58 -97 -64 -190 -3 -69 0 -100 16 -155 30 -95 94 -189 162 -235
30 -20 65 -44 77 -53 l22 -15 -43 -89 c-24 -49 -48 -103 -54 -120 -6 -17 -18
-34 -26 -37 -43 -16 -216 144 -280 259 -68 122 -88 196 -94 347 -5 161 6 219
73 359 37 77 43 96 33 108 -22 26 -149 148 -158 151 -5 2 -149 -139 -321 -312
-209 -212 -319 -316 -332 -316 -13 0 -68 46 -147 123 -218 213 -359 346 -593
561 -125 115 -226 215 -225 222 3 11 135 153 171 183 12 9 49 -25 203 -190
104 -111 220 -236 258 -278 135 -148 325 -341 336 -341 7 0 107 93 222 208
116 114 226 222 244 240 19 18 34 39 34 46 0 20 -108 116 -130 116 -21 0 -68
-51 -116 -126 -19 -29 -38 -56 -44 -59 -11 -7 -200 176 -200 193 0 5 28 27 63
50 34 22 80 56 101 74 l39 34 -33 37 c-64 74 -110 82 -227 41 -54 -18 -96 -25
-151 -26 -106 0 -144 8 -240 53 -339 156 -418 615 -153 880 116 116 266 171
431 158 183 -15 336 -107 427 -259 86 -142 101 -343 37 -488 -35 -78 -32 -92
30 -151 30 -28 59 -51 64 -51 10 0 71 77 117 148 15 23 32 42 38 42 14 0 197
-182 197 -196 0 -6 -15 -17 -32 -26 -37 -18 -161 -114 -167 -130 -3 -10 117
-138 130 -138 10 0 474 470 483 490 8 17 -8 36 -105 128 -63 60 -209 198 -324
308 -116 109 -248 232 -293 273 -45 41 -82 80 -82 86 0 6 43 53 96 105 l95 95
32 -36 c142 -160 408 -444 715 -763 89 -92 162 -174 162 -181 0 -7 -142 -152
-315 -323 -173 -172 -315 -318 -315 -326 0 -18 151 -176 168 -176 7 0 29 11
50 24 59 37 178 76 266 87 145 18 337 -22 468 -99 104 -60 259 -203 258 -237
-1 -10 -222 -135 -240 -135 -5 0 -23 26 -39 58 -38 75 -123 153 -199 183 -85
34 -228 38 -321 9 -111 -34 -112 -32 30 -178 68 -70 137 -141 154 -158 265
-275 728 -734 740 -734 9 0 44 20 78 44 34 24 77 51 96 61 58 29 192 72 266
85 38 6 73 17 77 23 4 7 8 235 8 508 0 419 -2 498 -14 508 -15 12 -114 6 -288
-19 -37 -6 -81 -10 -98 -10 l-31 0 3 138 3 137 25 -1 c14 -1 77 -8 140 -16 63
-8 147 -14 185 -14 l70 1 0 125 0 125 -53 3 c-30 2 -111 -5 -180 -14 -70 -10
-140 -18 -157 -18 l-30 -1 0 140 c0 155 -6 143 65 131 97 -17 207 -26 275 -24
l80 3 -4 135 c-2 74 -5 137 -7 139 -12 13 -206 -11 -314 -39 -25 -7 -56 -13
-70 -13 l-25 -2 -3 138 c-2 126 -1 137 15 137 10 1 104 2 208 3 l190 2 3 124
c2 88 -1 128 -10 138 -11 13 -38 15 -188 9 -276 -10 -650 -10 -661 1 -6 6 -14
113 -19 239 -21 515 -31 875 -25 884 7 12 252 14 259 2z m2166 -2889 l61 -26
-98 -99 -98 -98 -13 28 c-8 15 -27 41 -43 57 -15 17 -42 46 -58 66 -17 20 -45
42 -62 49 -25 11 -28 15 -15 22 28 15 98 26 183 27 68 1 92 -3 143 -26z m-312
-63 c76 -47 96 -143 41 -205 -17 -19 -48 -40 -69 -46 -78 -23 -170 52 -170
139 0 103 110 165 198 112z m627 -344 c10 -46 13 -89 9 -111 l-6 -36 -50 55
c-26 30 -58 58 -69 61 -19 7 -17 12 32 61 29 29 56 51 60 49 4 -3 14 -38 24
-79z m-114 -71 c39 -21 69 -71 69 -118 0 -50 -49 -105 -101 -113 -73 -12 -149
52 -149 125 0 94 96 150 181 106z m-871 -4947 c0 -71 -32 -96 -45 -35 -4 17
-15 41 -25 52 -19 20 -18 20 26 20 l44 0 0 -37z m-1425 15 c-4 -10 -10 -26
-12 -36 -9 -29 -47 -18 -51 15 -3 27 7 34 52 37 13 1 16 -3 11 -16z m1978 7
l48 0 -2 -141 -1 -141 -36 7 c-21 4 -41 8 -47 10 -5 1 -29 6 -52 10 -39 7 -43
11 -43 35 0 16 -3 35 -6 44 -5 12 0 16 19 16 33 0 49 22 45 62 -2 28 -7 34
-30 36 -23 3 -28 8 -28 32 0 30 22 42 65 34 11 -2 41 -4 68 -4z m-2463 -40 c0
-46 34 -90 70 -90 11 0 20 -4 20 -9 0 -5 -9 -7 -19 -4 -13 3 -29 -4 -45 -21
-21 -20 -26 -35 -26 -77 0 -43 -2 -49 -14 -40 -7 6 -29 12 -49 13 l-35 1 -7
114 c-8 134 0 153 67 153 38 0 38 0 38 -40z m466 -142 c-3 -13 -6 -33 -6 -45
0 -16 -6 -23 -20 -23 -17 0 -20 7 -20 45 0 42 2 45 26 45 22 0 25 -3 20 -22z
m511 -84 c-3 -3 -12 -4 -19 -1 -8 3 -5 6 6 6 11 1 17 -2 13 -5z m615 -74 c-4
-44 -22 -81 -22 -47 0 12 -8 17 -30 17 -28 0 -30 2 -30 39 0 22 -6 43 -12 48
-8 5 6 10 37 13 58 6 64 -1 57 -70z m-775 -92 c-2 -29 -3 -8 -3 47 0 55 1 79
3 53 2 -26 2 -71 0 -100z m-787 77 c7 -9 8 -15 2 -15 -5 0 -12 7 -16 15 -3 8
-4 15 -2 15 2 0 9 -7 16 -15z m40 -15 c0 -5 -5 -10 -11 -10 -5 0 -7 5 -4 10 3
6 8 10 11 10 2 0 4 -4 4 -10z m846 -190 c59 14 64 13 64 -20 0 -35 -3 -35 -66
-14 -34 11 -53 13 -68 6 -20 -9 -22 -6 -24 19 -2 30 -2 30 26 15 21 -11 38
-12 68 -6z"/>
<path d="M2150 8651 c-20 -4 -41 -10 -48 -15 -13 -8 383 -436 405 -436 16 0
26 40 27 105 3 168 -98 295 -269 339 -64 17 -63 17 -115 7z m208 -81 c90 -52
146 -152 140 -250 -2 -30 -6 -55 -9 -55 -3 0 -67 65 -142 144 -158 169 -160
174 -52 189 6 1 34 -12 63 -28z"/>
<path d="M1871 8403 c-5 -11 -9 -53 -8 -94 3 -132 74 -238 200 -298 54 -26 77
-31 139 -31 50 0 81 5 94 15 18 14 8 25 -190 217 -115 112 -212 204 -217 206
-4 2 -12 -5 -18 -15z m270 -270 c64 -62 113 -115 111 -118 -11 -11 -94 -4
-139 11 -78 27 -108 56 -132 129 -11 36 -21 84 -21 107 l0 42 33 -30 c17 -16
84 -79 148 -141z"/>
<path d="M4908 6095 c-83 -29 -181 -80 -204 -107 -17 -18 -12 -24 161 -198 98
-98 182 -177 187 -174 4 3 8 117 8 255 l0 249 -42 0 c-24 -1 -73 -12 -110 -25z
m112 -232 l0 -178 -110 110 c-60 60 -110 115 -110 121 0 29 149 116 213 123 4
1 7 -79 7 -176z"/>
<path d="M5250 5871 c0 -138 4 -252 8 -255 5 -3 86 73 181 168 120 120 172
179 169 191 -7 38 -246 145 -323 145 l-35 0 0 -249z m235 150 c45 -21 84 -42
86 -47 3 -5 -46 -58 -108 -119 l-113 -109 0 141 c0 78 3 148 6 157 9 25 39 19
129 -23z"/>
<path d="M4506 5787 c-55 -72 -132 -276 -119 -314 4 -10 64 -13 259 -13 140 0
254 3 254 8 0 12 -344 352 -357 352 -7 0 -23 -15 -37 -33z m215 -174 c60 -58
109 -110 109 -115 0 -4 -75 -8 -166 -8 l-166 0 6 32 c9 44 84 198 97 198 6 0
60 -48 120 -107z"/>
<path d="M5582 5647 c-94 -95 -172 -176 -172 -180 0 -4 115 -7 255 -7 l255 0
0 24 c0 83 -116 336 -153 336 -7 0 -90 -78 -185 -173z m244 26 c27 -61 44
-105 53 -145 l9 -38 -149 0 c-82 0 -149 2 -149 5 0 5 212 214 217 215 2 0 10
-17 19 -37z"/>
<path d="M4386 5252 c-9 -14 21 -134 48 -197 35 -79 88 -165 101 -165 11 0
365 351 365 363 0 10 -508 9 -514 -1z m424 -49 c0 -5 -58 -63 -129 -130 l-129
-122 -19 52 c-11 29 -26 76 -34 105 -20 82 -15 86 127 92 65 4 134 7 152 8 17
1 32 -1 32 -5z"/>
<path d="M5410 5252 c0 -4 80 -88 179 -186 l179 -178 20 20 c51 51 145 294
129 335 -6 15 -31 17 -257 17 -137 0 -250 -3 -250 -8z m465 -84 c-9 -41 -71
-187 -91 -213 -14 -19 -20 -14 -136 102 -66 66 -118 125 -114 131 4 6 72 11
177 12 l171 1 -7 -33z"/>
<path d="M4862 4927 c-94 -95 -172 -178 -172 -185 0 -46 330 -182 353 -144 10
14 9 496 0 499 -4 2 -86 -75 -181 -170z m158 -162 l0 -143 -60 14 c-33 8 -83
25 -111 40 l-51 26 103 107 c57 58 107 105 112 103 4 -2 7 -68 7 -147z"/>
<path d="M5262 4848 l3 -253 26 -3 c61 -7 324 115 324 150 0 17 -331 358 -347
358 -5 0 -7 -114 -6 -252z m243 -18 c78 -79 79 -82 60 -97 -26 -20 -152 -79
-188 -88 l-27 -7 0 167 0 167 38 -30 c20 -17 73 -67 117 -112z"/>
</g>
</svg>
